<svg version="1.1" id="Layer_1" xmlns="http://www.w3.org/2000/svg" xmlns:xlink="http://www.w3.org/1999/xlink" x="0px" y="0px"
	 width="100%" viewBox="0 0 1600 1000" enable-background="new 0 0 1600 1000" xml:space="preserve">
<path fill="#000000" opacity="1.000000" stroke="none" 
	d="
M897.000000,1001.000000 
	C598.000000,1001.000000 299.500000,1001.000000 1.000000,1001.000000 
	C1.000000,667.666687 1.000000,334.333344 1.000000,1.000000 
	C534.333313,1.000000 1067.666626,1.000000 1601.000000,1.000000 
	C1601.000000,334.333344 1601.000000,667.666687 1601.000000,1001.000000 
	C1366.500000,1001.000000 1132.000000,1001.000000 897.000000,1001.000000 
M630.445679,322.000000 
	C619.244019,322.671265 607.969177,322.773010 596.864380,324.198669 
	C588.374573,325.288574 579.873413,327.415436 571.802856,330.279907 
	C565.631836,332.470154 562.159363,336.811127 568.155579,343.458191 
	C575.558716,351.665009 583.200012,359.798553 591.628540,366.908478 
	C607.783813,380.536316 624.175842,393.949524 641.171143,406.501892 
	C677.050964,433.001923 713.358154,458.924225 749.546509,485.005188 
	C758.623474,491.546967 767.914429,497.791809 777.680176,504.570953 
	C777.850159,503.118469 777.994141,502.517456 777.979492,501.920319 
	C777.666138,489.153412 776.493286,476.333679 777.297546,463.638855 
	C777.851257,454.898895 773.576355,450.778412 767.269836,447.056854 
	C766.710815,446.726929 766.118835,446.445099 765.589233,446.073883 
	C733.225525,423.389954 700.866882,400.698761 668.507324,378.008881 
	C661.788574,373.297791 655.067993,368.589294 648.348267,363.879608 
	C652.680725,363.205200 656.613708,364.251709 660.409790,363.884216 
	C674.597412,362.510712 688.788818,361.005585 702.888367,358.934357 
	C724.621887,355.741730 745.281128,349.428833 762.383911,334.829010 
	C773.735352,325.138824 780.629700,312.647217 780.797058,297.651276 
	C780.940491,284.794739 774.723206,273.847321 765.531555,265.258606 
	C752.821960,253.382629 737.425964,245.719101 720.933777,240.505661 
	C694.164368,232.043411 666.465881,229.089035 638.580627,228.137634 
	C625.007385,227.674530 611.372437,228.413681 597.787476,229.067383 
	C583.469971,229.756332 569.145203,230.656830 554.884705,232.077698 
	C538.590698,233.701187 522.356384,235.941452 506.111847,238.036301 
	C500.041748,238.819077 498.075500,243.199661 501.692078,248.184494 
	C509.254761,258.608398 519.434631,266.151489 530.162659,272.966858 
	C531.962402,274.110199 534.361938,274.972595 536.445740,274.897278 
	C549.156189,274.437958 561.850037,273.532257 574.559631,273.037048 
	C594.756958,272.250153 614.958374,271.492920 635.165344,271.059540 
	C649.489807,270.752319 663.839722,270.612671 678.153076,271.115906 
	C690.851318,271.562317 703.065247,274.536957 713.549255,282.277191 
	C717.938538,285.517792 720.439697,290.017334 721.036743,295.605438 
	C721.991821,304.545013 713.798279,313.196991 704.603760,315.800415 
	C696.807678,318.007843 688.614258,319.300842 680.518250,319.857971 
	C664.180420,320.982117 647.789368,321.331238 630.445679,322.000000 
M957.527527,388.986694 
	C959.584656,387.347870 961.700073,385.776611 963.689209,384.059113 
	C975.534607,373.831390 987.511902,363.746643 999.074158,353.207031 
	C1002.349304,350.221527 1005.244019,346.191864 1006.761597,342.069763 
	C1008.510925,337.317810 1004.808228,332.712830 997.327393,331.155060 
	C984.860107,328.558868 972.235962,326.391663 959.569275,325.163391 
	C945.427673,323.792145 931.163269,323.703339 916.955505,322.992676 
	C904.579407,322.373627 892.193787,321.853088 879.838867,320.932709 
	C871.368164,320.301697 863.554749,317.364319 856.755432,312.182953 
	C851.660034,308.299988 850.554626,302.423981 853.730225,296.752411 
	C857.553833,289.923615 863.922852,285.732117 870.849731,283.274628 
	C880.646606,279.799011 890.797424,277.072693 900.998535,275.035675 
	C923.546997,270.533203 946.347961,268.166168 969.320618,271.068848 
	C983.755859,272.892822 998.083008,275.559357 1012.479370,277.708679 
	C1018.637512,278.628082 1025.149536,280.750763 1030.978516,279.624054 
	C1047.767090,276.378967 1061.769531,267.297791 1072.785522,254.385773 
	C1077.965576,248.314209 1077.722778,243.584198 1068.887085,240.917770 
	C1067.802856,240.590576 1066.722168,240.164688 1065.610229,240.029221 
	C1054.206177,238.640076 1042.810547,237.161835 1031.384277,235.981461 
	C1014.208679,234.207123 997.037598,231.751617 979.814941,231.232391 
	C958.740540,230.597061 937.613281,231.586334 916.511719,232.013931 
	C896.893555,232.411469 877.694702,235.791214 858.849976,241.052704 
	C837.880066,246.907547 818.163879,255.397339 803.447937,272.206146 
	C793.528381,283.536377 789.518005,296.731049 793.885437,311.812164 
	C799.103882,329.831665 812.176697,340.961853 827.976624,348.702057 
	C838.115906,353.669220 849.280823,357.174347 860.373840,359.411102 
	C875.919128,362.545563 891.802490,364.090088 907.589294,365.894501 
	C913.329773,366.550598 919.208252,366.000000 925.102234,366.000000 
	C915.693604,372.583618 906.065857,379.313660 896.445190,386.053711 
	C864.143738,408.683594 831.925964,431.434753 799.447144,453.807068 
	C795.168396,456.754364 794.570129,459.934204 795.114624,464.230072 
	C795.402527,466.501617 795.941467,468.769501 795.959778,471.042328 
	C796.048706,482.108917 796.000000,493.176636 796.000000,504.891479 
	C797.684143,503.958801 798.700562,503.491455 799.615723,502.874084 
	C807.889832,497.292694 816.248535,491.829437 824.389526,486.059418 
	C855.635742,463.913361 886.912598,441.807983 917.963745,419.390625 
	C931.249634,409.798859 944.009705,399.478851 957.527527,388.986694 
M112.510063,624.000000 
	C114.009850,624.000000 115.572975,624.277588 116.998535,623.952271 
	C123.395454,622.492676 126.203857,626.398254 129.105179,631.131470 
	C137.804901,645.324219 146.811142,659.329712 155.781540,673.354675 
	C156.478745,674.444763 157.809113,675.843384 158.876053,675.870178 
	C167.172592,676.078552 175.476700,675.985352 183.778473,675.985352 
	C184.139282,675.493042 184.500076,675.000732 184.860886,674.508423 
	C183.503357,672.988464 182.259720,671.342590 180.756866,669.983276 
	C179.188538,668.564636 176.905441,667.753235 175.734100,666.107422 
	C165.019791,651.053528 154.479691,635.875671 143.664536,620.413452 
	C161.452393,613.483459 170.498230,601.797607 169.062393,582.982239 
	C168.285553,572.802490 163.947327,564.908020 155.771545,558.941772 
	C145.815857,551.676636 134.232071,549.529602 122.409439,549.124207 
	C107.428276,548.610535 92.416130,548.992615 77.417374,549.012451 
	C75.993042,549.014282 74.568947,549.186951 73.144737,549.280273 
	C72.843811,549.712646 72.542892,550.145081 72.241966,550.577454 
	C73.396301,551.821411 74.321930,553.576050 75.747444,554.214539 
	C80.191750,556.205139 82.045441,559.401917 82.035271,564.204041 
	C81.967133,596.367981 82.009720,628.532043 81.992233,660.696106 
	C81.988335,667.865479 80.302116,669.917725 73.317719,671.515930 
	C73.317719,672.905334 73.317719,674.297302 73.317719,675.657837 
	C85.692833,675.657837 97.759407,675.657837 109.825989,675.657837 
	C110.136627,675.256775 110.447258,674.855774 110.757896,674.454712 
	C109.611244,673.204834 108.687042,671.533691 107.274345,670.787659 
	C103.693932,668.897034 101.804062,666.326782 101.961777,662.158081 
	C102.131767,657.664917 102.000038,653.160278 102.000015,648.660645 
	C101.999985,640.556519 102.000000,632.452332 102.000000,624.000000 
	C105.588867,624.000000 108.558990,624.000000 112.510063,624.000000 
M736.508606,553.903137 
	C721.091309,546.833618 704.936157,545.747925 688.620483,549.151306 
	C675.061951,551.979553 662.844849,558.333618 653.795715,568.942993 
	C640.308289,584.755920 635.534912,603.256104 638.919312,623.956970 
	C641.826172,641.737244 650.188843,656.034851 665.173706,665.940979 
	C680.158997,675.847534 696.657410,679.559448 714.741028,677.141113 
	C732.746582,674.733093 747.911804,667.815063 759.256531,653.274353 
	C772.113281,636.795593 775.521423,618.137390 771.485840,598.084717 
	C767.421997,577.891479 755.495911,563.429321 736.508606,553.903137 
M436.514648,665.011536 
	C441.232574,672.219727 445.961609,679.406738 457.000000,675.048828 
	C457.000000,673.745422 457.000000,671.951904 457.000000,670.158386 
	C457.000000,635.008606 457.041412,599.858704 456.952820,564.709167 
	C456.940338,559.762390 458.372711,555.803162 463.316742,554.426147 
	C466.724060,553.477112 466.094879,551.627991 465.690613,549.265503 
	C457.416382,549.265503 449.318665,549.265503 441.220947,549.265503 
	C440.865997,549.702332 440.511047,550.139099 440.156097,550.575928 
	C441.425293,551.871460 442.491516,553.520569 444.005463,554.389709 
	C447.247620,556.250916 449.130371,558.321167 449.098633,562.520813 
	C448.902252,588.506836 448.999908,614.495117 448.999908,640.482605 
	C448.999908,641.946228 448.999908,643.409912 448.999908,644.873535 
	C442.569550,638.248291 437.486389,631.470581 432.262878,624.802856 
	C413.985901,601.472778 395.687317,578.159485 377.310181,554.908386 
	C375.563385,552.698303 373.355865,549.508301 371.111023,549.283691 
	C363.888336,548.561035 356.547943,549.014709 347.739441,549.014709 
	C349.277802,551.372131 349.934937,553.632629 351.064056,553.900024 
	C357.067383,555.321594 358.031769,559.520935 358.023987,564.711182 
	C357.976074,596.695679 358.009460,628.680420 357.992584,660.665039 
	C357.988770,667.868896 356.292908,669.939941 349.301056,671.491638 
	C349.301056,672.884644 349.301056,674.279053 349.301056,675.681458 
	C357.668030,675.681458 365.742889,675.681458 373.817749,675.681458 
	C374.129700,675.294739 374.441681,674.908081 374.753662,674.521362 
	C373.624176,673.255371 372.728912,671.530151 371.320190,670.811768 
	C367.478851,668.852844 365.927887,666.028076 365.945129,661.714722 
	C366.053680,634.561584 365.996460,607.407715 366.011963,580.254089 
	C366.012665,579.040771 366.187134,577.827576 366.351196,575.699585 
	C389.976654,605.821411 412.988342,635.160706 436.514648,665.011536 
M965.038940,549.110535 
	C964.619934,550.539795 964.200867,551.968994 963.795044,553.353333 
	C971.166260,555.957153 971.999634,557.114807 971.999756,564.187988 
	C972.000366,596.852173 971.914978,629.516846 972.101440,662.179993 
	C972.126343,666.551147 970.502502,669.403442 966.739990,670.528198 
	C963.428284,671.518250 963.778931,673.258423 964.367310,675.710938 
	C976.583313,675.710938 988.675171,675.710938 1000.767090,675.710938 
	C1001.118225,675.261719 1001.469360,674.812561 1001.820496,674.363342 
	C1000.537415,673.068420 999.215698,671.809021 997.980652,670.469849 
	C996.288696,668.635132 993.296875,666.787292 993.229858,664.862732 
	C992.796753,652.425537 993.008118,639.965881 993.008118,626.999939 
	C1000.621155,626.999939 1007.770020,627.417114 1014.853027,626.911133 
	C1028.607910,625.928467 1041.182373,621.899719 1051.062500,611.478638 
	C1062.250977,599.677612 1061.061035,575.583618 1050.601318,564.842834 
	C1039.380493,553.320862 1025.427246,549.768921 1010.434631,549.137817 
	C995.629028,548.514526 980.776184,549.014771 965.038940,549.110535 
M247.000000,659.441528 
	C247.000000,645.031494 247.000000,630.621521 247.000000,616.367737 
	C248.082321,616.159180 248.403915,616.044006 248.725845,616.043030 
	C256.054535,616.021118 263.383240,616.001404 270.711975,616.002625 
	C279.889862,616.004150 283.556763,618.902039 285.479340,627.706421 
	C286.869232,627.706421 288.265503,627.706421 289.691345,627.706421 
	C289.691345,617.012024 289.691345,606.601196 289.691345,596.390625 
	C286.262634,595.050049 284.807861,596.610657 284.172516,599.435059 
	C283.186523,603.818054 280.188507,606.521973 276.036621,606.886414 
	C266.549042,607.719360 257.008820,607.952393 247.319824,608.437622 
	C247.319824,590.764038 247.319824,574.054321 247.319824,557.000000 
	C257.102966,557.000000 266.580688,557.289001 276.034271,556.934509 
	C291.523193,556.353699 297.476807,562.184143 303.048553,575.075684 
	C303.667297,576.507324 305.495636,577.416199 306.763062,578.567566 
	C307.263306,578.229553 307.763580,577.891479 308.263824,577.553467 
	C307.106995,568.187622 305.950165,558.821777 304.766754,549.240845 
	C275.817017,549.240845 247.075195,549.240845 217.310410,549.240845 
	C218.177475,551.176514 218.548172,553.587219 219.479340,553.827698 
	C225.861908,555.476013 226.859680,560.637146 226.892990,565.666931 
	C227.099243,596.813843 227.120483,627.963745 226.858185,659.109802 
	C226.821228,663.496887 226.952652,669.164673 220.812897,670.544067 
	C217.386963,671.313721 217.761978,673.194031 218.362854,675.747498 
	C248.444000,675.747498 278.517242,675.747498 308.770111,675.747498 
	C309.952759,666.150330 311.107056,656.783386 312.237457,647.609985 
	C307.199860,645.615479 306.965637,649.390259 306.156769,651.724243 
	C303.310364,659.937256 297.835785,665.649597 289.513977,667.576782 
	C284.604187,668.713745 279.248260,667.968994 274.092651,667.989990 
	C265.165253,668.026306 256.237579,668.000000 247.000000,668.000000 
	C247.000000,665.034363 247.000000,662.727234 247.000000,659.441528 
M1153.500000,549.000000 
	C1138.402710,549.000000 1123.305542,549.000000 1108.208252,549.000000 
	C1107.892822,549.498474 1107.577515,549.996948 1107.262085,550.495422 
	C1108.400391,551.764465 1109.312866,553.440918 1110.721802,554.221802 
	C1114.162598,556.128845 1116.124268,558.302795 1116.099854,562.708252 
	C1115.916626,595.863770 1115.916016,629.021240 1116.101318,662.176758 
	C1116.125732,666.545654 1114.506470,669.401794 1110.745239,670.525513 
	C1107.436035,671.514038 1107.769653,673.248413 1108.361938,675.677246 
	C1138.553467,675.677246 1168.622681,675.677246 1198.683472,675.677246 
	C1199.283569,670.635315 1199.838989,665.911377 1200.409668,661.189270 
	C1200.970459,656.551392 1201.546631,651.915344 1202.116089,647.278503 
	C1201.553101,646.972473 1200.990112,646.666504 1200.427124,646.360474 
	C1199.252563,647.647949 1197.624390,648.740784 1196.975098,650.253662 
	C1191.562500,662.867859 1184.289917,668.448364 1173.624878,668.045227 
	C1167.136108,667.799927 1160.630615,668.000000 1154.132568,668.000000 
	C1148.199707,668.000000 1142.266846,668.000000 1136.416504,668.000000 
	C1136.416504,650.276733 1136.416504,633.235107 1136.416504,616.000061 
	C1144.823853,616.000061 1152.815796,615.994202 1160.807739,616.001709 
	C1168.840454,616.009277 1171.726318,618.070923 1174.864380,625.493774 
	C1175.361206,626.669128 1176.946899,627.384094 1178.783936,628.958923 
	C1178.783936,616.934570 1178.783936,606.640930 1178.783936,596.347290 
	C1178.397095,596.067139 1178.010254,595.786926 1177.623413,595.506775 
	C1176.614380,596.633484 1175.600220,597.755676 1174.597168,598.887756 
	C1172.285767,601.496643 1170.242554,606.025391 1167.625244,606.384583 
	C1157.268677,607.805664 1146.733032,607.921265 1136.309082,608.518372 
	C1136.309082,590.590942 1136.309082,574.000427 1136.309082,557.000000 
	C1146.242432,557.000000 1155.884644,557.307739 1165.499878,556.930481 
	C1181.350952,556.308533 1187.391968,561.908630 1193.051514,575.114746 
	C1193.653564,576.519714 1195.515991,577.384460 1196.793823,578.499817 
	C1197.246826,578.153381 1197.699829,577.806946 1198.152954,577.460510 
	C1196.989624,568.098450 1195.826294,558.736450 1194.616577,549.000000 
	C1181.096802,549.000000 1167.798462,549.000000 1153.500000,549.000000 
M884.122009,645.392334 
	C886.123352,651.922729 882.230896,662.797607 876.446533,666.836792 
	C866.050476,674.096130 851.420654,673.900513 839.864685,666.337952 
	C831.036865,660.560730 826.234131,651.878662 822.794373,642.305176 
	C821.794495,639.522339 820.473022,638.185486 817.000488,639.541382 
	C817.000488,646.631287 816.764587,653.941284 817.153320,661.218018 
	C817.260986,663.233643 818.749878,665.819092 820.415466,667.000671 
	C829.451233,673.410767 839.777893,675.882629 850.727600,677.236755 
	C863.540039,678.821228 875.497070,677.423645 887.008301,671.538452 
	C900.509399,664.635925 906.976562,646.836731 903.070435,632.110596 
	C900.509399,622.455322 893.741943,616.097107 885.704529,610.971497 
	C874.540344,603.851807 863.071106,597.203186 852.011230,589.929077 
	C840.522095,582.372620 837.947266,570.727722 844.943176,560.268250 
	C850.132385,552.509766 862.620056,551.079041 872.234924,555.139221 
	C883.910889,560.069702 888.702637,570.463989 891.860168,581.711670 
	C892.751160,584.885559 894.049927,585.261230 897.000000,584.657166 
	C897.000000,580.365601 896.535828,576.155334 897.095703,572.085876 
	C898.295715,563.364258 896.476868,556.628052 887.191772,553.684448 
	C885.961304,553.294312 884.856689,552.524475 883.653198,552.029053 
	C873.139587,547.701416 862.420227,545.942749 850.980530,547.890442 
	C838.910217,549.945496 829.384949,555.262390 825.179199,567.079712 
	C820.748718,579.528503 822.408020,591.330994 831.841309,601.330994 
	C841.601379,611.677612 854.533447,617.364014 866.324097,624.728027 
	C874.146973,629.613892 882.138062,634.369690 884.122009,645.392334 
M1266.004639,658.505371 
	C1267.379517,659.680298 1268.708984,660.913818 1270.136475,662.020813 
	C1281.557007,670.877014 1294.449097,675.478882 1308.860474,677.265869 
	C1325.342529,679.309631 1340.538208,676.743530 1354.839478,668.526062 
	C1356.652100,667.484558 1359.265381,666.092163 1359.581543,664.483765 
	C1361.212280,656.187500 1362.215088,647.767700 1363.437012,639.391052 
	C1362.834229,639.051147 1362.231445,638.711243 1361.628662,638.371338 
	C1360.397217,639.603821 1358.864868,640.653625 1357.986938,642.100586 
	C1354.446045,647.935608 1351.979614,654.667908 1347.539551,659.668762 
	C1330.221558,679.174011 1295.461182,675.183594 1280.905884,652.856812 
	C1272.385986,639.788025 1269.471558,625.544067 1269.943115,610.204102 
	C1270.401489,595.294861 1273.630371,581.550903 1282.818237,569.278137 
	C1292.540894,556.291077 1310.145386,550.687500 1325.199951,554.614136 
	C1340.290527,558.550171 1349.303467,568.608826 1353.835083,583.009277 
	C1354.901001,586.396484 1356.159302,587.824646 1359.999756,586.441895 
	C1359.999756,579.025208 1359.851807,571.549988 1360.070679,564.085571 
	C1360.161621,560.982971 1359.049927,559.414001 1356.320557,557.996277 
	C1338.130737,548.547729 1319.091919,544.907043 1298.815796,548.994873 
	C1282.262085,552.332275 1268.591675,560.207703 1258.910889,574.368591 
	C1250.419067,586.790222 1247.573242,600.573914 1247.881348,615.487183 
	C1248.224731,632.118408 1254.307983,646.029541 1266.004639,658.505371 
M1446.000000,614.500000 
	C1445.999878,629.988098 1446.025757,645.476196 1445.987915,660.964233 
	C1445.971191,667.823608 1444.269775,669.876282 1437.880737,671.169617 
	C1437.621704,671.222107 1437.422974,671.572632 1437.036865,671.933044 
	C1437.089478,673.068481 1437.148071,674.333679 1437.211670,675.708008 
	C1449.932251,675.708008 1462.349121,675.708008 1474.803711,675.708008 
	C1474.803711,674.116272 1474.803711,672.817078 1474.803711,671.561951 
	C1467.561890,669.834167 1466.002075,667.884460 1466.001465,660.683411 
	C1465.998291,628.041931 1466.000000,595.400391 1466.000000,562.758911 
	C1466.000000,560.983826 1466.000000,559.208740 1466.000000,557.000000 
	C1470.872681,557.000000 1475.187256,557.270874 1479.457397,556.948975 
	C1492.022583,556.001770 1501.066406,562.340271 1504.794800,574.755615 
	C1505.707397,577.794312 1507.012939,578.357605 1510.363525,577.495056 
	C1509.192017,568.034668 1508.033081,558.675964 1506.858154,549.187866 
	C1472.787109,549.187866 1439.195068,549.187866 1404.927124,549.187866 
	C1403.778931,558.729675 1402.639648,568.197327 1401.509766,577.585693 
	C1405.015869,578.789429 1406.096069,577.199219 1407.095459,574.409790 
	C1409.898071,566.587219 1413.961426,559.393250 1423.069336,558.056030 
	C1430.480713,556.967896 1438.067017,557.070251 1446.000000,556.620605 
	C1446.000000,576.258606 1446.000000,594.879333 1446.000000,614.500000 
M544.000000,616.500000 
	C543.999939,631.661987 544.017944,646.824097 543.990662,661.986023 
	C543.980408,667.680359 542.055969,669.906738 536.405701,671.044128 
	C535.971558,671.131470 535.573364,671.397949 535.208801,671.558960 
	C535.208801,672.999939 535.208801,674.276917 535.208801,675.749023 
	C547.832886,675.749023 560.257874,675.749023 572.728271,675.749023 
	C572.728271,674.065002 572.728271,672.634094 572.728271,671.248047 
	C565.887085,670.113647 564.013916,667.888489 564.009521,660.844116 
	C563.988647,627.687744 563.996460,594.531311 564.013123,561.374939 
	C564.013855,559.957031 564.204712,558.539246 564.315735,557.000000 
	C569.320740,557.000000 573.820435,557.124084 578.311218,556.976807 
	C591.955688,556.529480 598.891907,562.863525 602.920837,574.481934 
	C604.007812,577.616516 605.373840,578.874756 608.574524,577.501404 
	C607.332336,567.921082 606.105164,558.456238 604.879089,549.000000 
	C587.210754,549.000000 570.384583,549.000000 553.558411,549.000000 
	C536.779419,549.000000 520.000366,549.000000 503.102875,549.000000 
	C501.913818,558.957336 500.794342,568.331543 499.674896,577.705811 
	C500.271576,578.024475 500.868256,578.343079 501.464935,578.661743 
	C502.664856,577.396912 504.053223,576.261719 505.029449,574.843018 
	C508.007141,570.515503 510.108826,565.303711 513.851196,561.840637 
	C522.530151,553.809448 533.515991,557.953003 544.000000,556.882629 
	C544.000000,576.908203 544.000000,596.204102 544.000000,616.500000 
M1017.856873,764.911377 
	C1021.708069,764.275146 1025.642578,763.945862 1029.390015,762.927734 
	C1034.471924,761.546997 1034.747437,760.614685 1033.126953,755.217773 
	C1022.548218,761.762878 1015.734741,760.569153 1010.939209,755.455627 
	C1006.204163,750.406494 1006.084045,742.721313 1009.426208,737.249817 
	C1013.595459,730.424194 1018.880554,730.253235 1033.604614,735.824768 
	C1033.873779,734.598083 1034.135132,733.407654 1034.352173,732.418945 
	C1039.040649,732.418945 1043.433228,732.418945 1048.000000,732.418945 
	C1048.000000,737.992981 1048.000000,743.149048 1048.000000,748.305176 
	C1048.000000,753.417969 1048.000000,758.530701 1048.000000,763.618042 
	C1050.312866,763.618042 1052.020386,763.618042 1054.000000,763.618042 
	C1054.000000,758.104614 1054.000000,752.960327 1054.000000,747.816040 
	C1054.000000,742.701477 1054.000000,737.586975 1054.000000,731.927368 
	C1058.928589,731.927368 1063.333008,731.927368 1068.092163,731.927368 
	C1067.890137,729.954834 1067.748901,728.576904 1067.587891,727.005310 
	C1057.375000,727.005310 1047.339355,725.753235 1037.835083,727.460327 
	C1031.835571,728.537964 1027.077148,726.460876 1021.743469,726.168518 
	C1015.729492,725.838867 1009.591309,727.161987 1005.707825,732.022034 
	C997.755798,741.973755 999.472900,763.041443 1017.856873,764.911377 
M1148.489014,735.953064 
	C1143.017944,725.155823 1144.012695,726.545227 1135.342285,727.585571 
	C1135.342285,739.639221 1135.342285,751.701538 1135.342285,763.751892 
	C1137.293457,763.751892 1138.900757,763.751892 1141.256836,763.751892 
	C1141.256836,754.407654 1141.256836,745.279907 1141.256836,736.152222 
	C1146.483032,743.575806 1150.895996,751.000427 1154.838257,758.667053 
	C1157.088623,763.043518 1159.744263,765.325867 1164.737793,763.447632 
	C1164.737793,751.311096 1164.737793,739.377991 1164.737793,727.342163 
	C1162.754883,727.342163 1161.046387,727.342163 1158.792236,727.342163 
	C1158.792236,735.685425 1158.792236,743.708496 1158.792236,751.731506 
	C1158.435791,751.826782 1158.079468,751.921997 1157.723022,752.017273 
	C1154.815430,746.844971 1151.907837,741.672668 1148.489014,735.953064 
M880.997070,753.495911 
	C882.171448,755.653992 883.453674,757.761414 884.497192,759.981018 
	C886.500610,764.242432 889.745300,764.700073 893.737061,763.570801 
	C893.737061,751.309204 893.737061,739.376038 893.737061,727.343079 
	C891.760986,727.343079 890.052063,727.343079 887.790283,727.343079 
	C887.790283,735.687073 887.790283,743.710083 887.790283,751.733093 
	C883.090210,745.557068 879.422363,739.126465 875.934387,732.599792 
	C872.799988,726.734802 871.175964,725.975952 864.267212,727.770081 
	C864.267212,739.702881 864.267212,751.635620 864.267212,763.651367 
	C866.247925,763.651367 867.956909,763.651367 870.220093,763.651367 
	C870.220093,754.303162 870.220093,745.282471 870.220093,736.261719 
	C870.591125,736.164856 870.962158,736.068054 871.333130,735.971191 
	C874.384277,741.631226 877.435364,747.291260 880.997070,753.495911 
M607.098145,758.441711 
	C608.900879,762.823914 611.427185,765.770203 616.752930,763.306091 
	C616.752930,751.339661 616.752930,739.403809 616.752930,727.324036 
	C615.127625,727.324036 613.752380,727.324036 611.834656,727.324036 
	C611.834656,735.981201 611.834656,744.345642 611.834656,753.879089 
	C610.642883,752.532837 610.202576,752.173767 609.936340,751.713867 
	C606.164185,745.195923 601.805420,738.927551 598.842590,732.057983 
	C596.173889,725.870605 592.052917,726.722229 587.252808,727.392395 
	C587.252808,739.664551 587.252808,751.597473 587.252808,763.669922 
	C589.217957,763.669922 590.926819,763.669922 593.183777,763.669922 
	C593.183777,754.333313 593.183777,745.307495 593.183777,736.281677 
	C593.551453,736.176758 593.919128,736.071777 594.286804,735.966797 
	C598.499451,743.211670 602.712158,750.456543 607.098145,758.441711 
M367.080444,747.326111 
	C369.398682,751.275757 372.204865,755.027405 373.908325,759.226440 
	C375.913239,764.168701 379.050873,764.919250 383.693604,763.479309 
	C383.693604,751.442444 383.693604,739.386963 383.693604,727.001343 
	C381.652649,727.093750 379.942108,727.171143 377.696838,727.272766 
	C377.696838,735.780334 377.696838,743.784119 377.696838,751.787964 
	C372.786102,745.510010 368.306946,739.228516 365.344391,732.298645 
	C362.905792,726.594299 359.355957,726.355652 354.274597,727.406799 
	C354.274597,739.497009 354.274597,751.551025 354.274597,763.949951 
	C355.943970,763.854919 357.319458,763.776672 359.219421,763.668518 
	C359.219421,753.962219 359.219421,744.613953 359.219421,735.265686 
	C359.585297,735.163025 359.951202,735.060364 360.317078,734.957703 
	C362.515472,738.838013 364.713898,742.718262 367.080444,747.326111 
M531.840637,749.971375 
	C534.786560,749.971375 537.732483,749.971375 540.589844,749.971375 
	C541.431213,757.995544 539.330566,760.481689 531.837646,759.880432 
	C526.495789,759.451904 521.412537,757.459412 519.170044,752.057373 
	C516.755127,746.240173 517.070862,740.022156 521.489380,735.457336 
	C524.974731,731.856567 529.828857,729.702087 535.374146,731.935425 
	C538.749146,733.294556 542.245239,734.353210 545.687195,735.545959 
	C546.298889,729.197876 545.711975,727.857605 539.982239,727.193054 
	C535.021912,726.617676 529.851379,726.486511 524.934753,727.227539 
	C517.800781,728.302673 512.292542,735.644958 512.001709,743.155334 
	C511.556885,754.642212 514.896912,760.070190 523.257202,763.185364 
	C531.252014,766.164429 538.520264,764.364441 545.678467,761.452454 
	C545.678467,755.892822 545.678467,750.635498 545.678467,745.214966 
	C540.423462,745.214966 535.490601,745.214966 529.843018,745.214966 
	C530.260620,746.985413 530.599182,748.421143 531.840637,749.971375 
M1092.002075,741.895996 
	C1092.001465,743.893982 1091.982300,745.892151 1092.003418,747.889893 
	C1092.110840,758.072388 1101.160400,766.310120 1111.151489,764.918579 
	C1117.917236,763.976257 1123.799683,761.271606 1126.358276,754.160034 
	C1129.140503,746.427307 1128.813110,738.903137 1123.669800,732.306030 
	C1119.750854,727.279419 1113.909180,725.447998 1107.791138,726.235352 
	C1099.244141,727.335266 1093.450317,732.007263 1092.002075,741.895996 
M793.000183,754.650574 
	C793.083618,753.195251 793.166992,751.739929 793.243774,750.400635 
	C800.678894,748.378967 803.611877,753.835449 806.956787,758.119202 
	C810.178528,762.245178 813.454102,765.522705 819.652710,763.437622 
	C815.107422,758.317383 810.690186,753.341431 806.138550,748.214050 
	C807.169800,747.597595 808.019714,747.145508 808.810974,746.607300 
	C813.151428,743.654175 813.767151,739.149841 812.841309,734.671204 
	C812.043213,730.809753 809.234070,728.222961 804.934448,727.915955 
	C799.096924,727.499207 793.259338,727.082458 787.366577,726.661804 
	C787.366577,739.700317 787.366577,751.747925 787.366577,764.023865 
	C789.349121,763.933777 790.953491,763.860962 793.000000,763.768005 
	C793.000000,760.848877 793.000000,758.221313 793.000183,754.650574 
M931.563721,754.925232 
	C932.048767,749.500671 930.040833,745.650879 925.243469,744.226868 
	C921.365479,743.075684 917.138611,743.059021 913.309631,741.799805 
	C911.279358,741.132141 909.031067,739.169617 908.303345,737.251892 
	C907.883301,736.145203 909.949036,733.091431 911.514160,732.469116 
	C913.888306,731.525269 916.869080,731.484802 919.467224,731.880615 
	C922.910889,732.405090 926.234070,733.719849 929.603088,734.693298 
	C930.922791,730.467224 929.651306,727.576599 925.235596,727.228027 
	C920.250977,726.834473 915.088135,726.382202 910.241577,727.265564 
	C906.155518,728.010376 902.403015,730.673706 902.018005,735.719788 
	C901.567261,741.628418 903.522278,744.825195 909.052124,746.475586 
	C912.933289,747.633972 917.132568,747.822937 920.901550,749.221619 
	C922.878723,749.955383 925.516174,752.362610 925.512939,754.009521 
	C925.509705,755.656311 922.840149,758.151978 920.880615,758.735901 
	C918.105347,759.562805 914.827271,759.420105 911.914917,758.879395 
	C908.612671,758.266235 905.476929,756.755981 902.366760,755.669983 
	C900.428101,761.034058 903.226685,763.161438 908.021362,763.935974 
	C909.628357,764.195557 911.219238,764.557922 912.813904,764.890259 
	C920.776489,766.549377 929.158813,762.288025 931.563721,754.925232 
M1186.799805,731.091370 
	C1191.431885,732.213074 1196.064087,733.334717 1200.689941,734.451172 
	C1201.897827,730.575867 1200.739868,727.699097 1196.567383,727.370117 
	C1191.265503,726.952087 1185.731689,726.387207 1180.631348,727.464355 
	C1176.487549,728.339417 1172.862183,731.362488 1172.927734,736.873596 
	C1172.989380,742.081970 1175.277710,745.313782 1180.182251,746.582886 
	C1184.116821,747.600891 1188.294678,747.861084 1192.061401,749.268982 
	C1194.005859,749.995667 1196.251587,752.341919 1196.540283,754.234253 
	C1196.737793,755.528198 1193.957520,758.369202 1192.216064,758.640259 
	C1188.526001,759.214600 1184.606201,758.836304 1180.855469,758.312622 
	C1178.382080,757.967285 1176.039062,756.687744 1173.637695,755.826477 
	C1173.191406,756.129028 1172.745117,756.431641 1172.298706,756.734192 
	C1173.300903,758.804810 1173.860718,762.205505 1175.383057,762.711914 
	C1181.414795,764.717896 1187.725708,765.829834 1194.143921,763.909485 
	C1198.571167,762.584900 1202.818237,757.584839 1202.979248,753.226135 
	C1203.145264,748.727173 1200.491699,745.639771 1194.494873,743.908508 
	C1191.390259,743.012268 1187.961426,743.054321 1185.016968,741.847900 
	C1182.745117,740.917114 1180.999756,738.701904 1179.020264,737.057800 
	C1180.911865,735.359924 1182.786621,733.642578 1184.710449,731.982117 
	C1185.056519,731.683533 1185.605225,731.619751 1186.799805,731.091370 
M976.038696,739.288635 
	C976.038696,737.014282 976.038696,734.739929 976.038696,731.926697 
	C982.926392,731.926697 989.328186,731.926697 996.075256,731.926697 
	C995.886536,729.970642 995.753723,728.594116 995.626709,727.277588 
	C986.958496,727.277588 978.715088,727.277588 970.328735,727.277588 
	C970.328735,739.580811 970.328735,751.604553 970.328735,763.641907 
	C979.041626,763.641907 987.421631,763.641907 995.738220,763.641907 
	C995.738220,762.011047 995.738220,760.739746 995.738220,758.906982 
	C989.123413,758.906982 982.736450,758.906982 976.401611,758.906982 
	C976.401611,754.296631 976.401611,750.259033 976.401611,745.847412 
	C983.066040,745.847412 989.332642,745.847412 995.935730,745.847412 
	C995.849548,744.069214 995.783020,742.696350 995.721680,741.432312 
	C988.942505,741.006958 982.567566,740.606995 976.038696,739.288635 
M560.882080,732.168213 
	C567.148682,732.168213 573.415283,732.168213 580.057068,732.168213 
	C579.876282,730.000732 579.761536,728.625183 579.647827,727.261902 
	C570.993530,727.261902 562.749390,727.261902 554.312683,727.261902 
	C554.312683,739.548462 554.312683,751.571777 554.312683,763.662903 
	C563.014526,763.662903 571.400024,763.662903 579.757568,763.662903 
	C579.757568,762.048645 579.757568,760.772583 579.757568,758.936768 
	C573.164429,758.936768 566.773254,758.936768 560.384827,758.936768 
	C560.384827,754.330078 560.384827,750.293091 560.384827,745.877686 
	C567.029663,745.877686 573.295654,745.877686 579.669739,745.877686 
	C579.669739,744.106750 579.669739,742.733582 579.669739,740.807312 
	C572.981201,740.807312 566.588806,740.807312 560.190857,740.807312 
	C560.190857,737.762207 560.190857,735.281128 560.882080,732.168213 
M405.502777,727.000000 
	C401.416382,727.000000 397.329987,727.000000 393.289062,727.000000 
	C393.289062,739.699402 393.289062,751.625183 393.289062,763.665649 
	C401.979736,763.665649 410.378174,763.665649 418.757782,763.665649 
	C418.757782,762.048279 418.757782,760.772827 418.757782,758.921631 
	C412.154144,758.921631 405.752136,758.921631 399.410522,758.921631 
	C399.410522,754.291626 399.410522,750.247131 399.410522,745.819031 
	C406.097443,745.819031 412.376404,745.819031 419.001312,745.819031 
	C418.867615,744.018799 418.765442,742.642822 418.634521,740.879944 
	C411.997101,740.879944 405.726196,740.879944 399.348572,740.879944 
	C399.348572,737.745361 399.348572,735.037292 399.348572,731.931824 
	C405.963074,731.931824 412.240479,731.931824 418.688995,731.931824 
	C418.688995,730.148438 418.688995,728.773315 418.688995,727.000000 
	C414.438385,727.000000 410.466309,727.000000 405.502777,727.000000 
M751.098999,753.687561 
	C750.006470,756.892822 748.913879,760.098083 747.792053,763.389343 
	C751.903320,764.700317 754.421448,764.275452 755.252258,759.675232 
	C755.613586,757.674866 757.146545,754.493835 758.479248,754.314392 
	C763.033020,753.701172 768.036621,753.262207 772.247803,754.645935 
	C774.265869,755.308960 774.883606,760.215759 776.158020,763.191040 
	C776.276245,763.467163 776.557983,763.673218 776.737122,763.880920 
	C778.643860,763.880920 780.457825,763.880920 782.663269,763.880920 
	C781.702820,761.097534 780.883179,758.515747 779.926086,755.985901 
	C776.640076,747.299683 773.192932,738.672302 770.050049,729.935181 
	C768.915344,726.780518 766.655334,726.552063 764.208435,727.101990 
	C762.731018,727.434082 760.734009,728.450623 760.239746,729.672852 
	C757.127319,737.369751 754.370850,745.210571 751.098999,753.687561 
M642.075012,758.791870 
	C641.716858,760.344421 641.358704,761.897034 641.007385,763.419983 
	C645.532898,765.239624 647.511108,763.443054 648.484070,759.223267 
	C648.911499,757.369629 650.261108,754.423096 651.459595,754.284363 
	C656.037109,753.754333 661.020386,753.251648 665.239624,754.622986 
	C667.242859,755.274170 667.858948,760.174011 669.127075,763.139038 
	C669.241943,763.407654 669.529968,763.602173 669.690857,763.779541 
	C671.657654,763.779541 673.565002,763.779541 675.801086,763.779541 
	C671.439331,752.227600 667.115479,741.004578 662.990967,729.708740 
	C661.807983,726.468872 659.282776,726.615356 657.011841,727.143555 
	C655.518433,727.490967 653.695923,728.933472 653.126221,730.334900 
	C649.395935,739.511047 645.967163,748.809692 642.075012,758.791870 
M444.546661,742.990051 
	C448.337738,737.915588 452.128815,732.841125 456.029236,727.620239 
	C450.524719,725.507019 448.223724,728.535522 445.969482,731.977844 
	C444.068878,734.880127 441.892212,737.601624 439.923309,740.286438 
	C433.475525,736.418884 434.156494,724.974060 422.938293,727.363098 
	C426.208557,732.051758 428.867432,736.813293 432.451111,740.728271 
	C435.873047,744.466553 435.232147,746.957581 432.245941,750.420593 
	C428.790283,754.428101 425.980530,758.992554 422.825104,763.406372 
	C428.536316,765.501343 430.748199,761.966309 433.129425,758.408447 
	C439.168488,749.385071 439.260620,749.392334 445.126587,758.466797 
	C447.563110,762.235962 450.012634,765.693970 455.908783,763.343567 
	C452.686768,758.800049 449.355621,754.389954 446.374512,749.754761 
	C445.211304,747.946106 444.835602,745.630859 444.546661,742.990051 
M721.644897,728.894775 
	C714.423462,732.850891 713.111694,739.958984 713.186340,746.980774 
	C713.277771,755.585754 718.628906,762.338684 725.027100,763.941101 
	C730.570862,765.329407 735.984314,764.974670 741.367126,763.032654 
	C746.380676,761.223816 746.693726,760.740051 745.185364,755.231567 
	C735.016602,761.045471 728.883240,761.128296 723.330566,755.882385 
	C718.760376,751.564514 717.545715,743.335815 721.209167,737.811829 
	C728.177917,727.304138 737.061096,731.520569 745.836365,736.241333 
	C745.836365,733.602722 745.836365,731.638550 745.836365,729.711670 
	C732.525330,724.972473 732.872803,725.239075 721.644897,728.894775 
M955.677368,749.747253 
	C961.636047,747.502869 965.515747,742.309753 964.955017,737.328857 
	C964.376953,732.194214 960.366943,728.025574 953.985962,727.212280 
	C949.143616,726.595154 944.159668,727.089966 939.270508,727.089966 
	C939.270508,739.705566 939.270508,751.641541 939.270508,763.647217 
	C941.255615,763.647217 942.965515,763.647217 945.084839,763.647217 
	C945.084839,759.042969 945.084839,754.769165 945.084839,749.949219 
	C948.602051,749.949219 951.722900,749.949219 955.677368,749.747253 
M476.000000,753.466370 
	C476.000000,746.384705 476.000000,739.302979 476.000000,731.852722 
	C481.052032,731.852722 485.328918,731.852722 489.941071,731.852722 
	C489.850189,730.066956 489.780182,728.691589 489.705597,727.226257 
	C478.716858,727.226257 468.121216,727.226257 457.295105,727.226257 
	C457.295105,728.829590 457.295105,730.203796 457.295105,732.158813 
	C461.612061,732.158813 465.673218,732.158813 470.104950,732.158813 
	C470.104950,743.001465 470.104950,753.268311 470.104950,763.673462 
	C472.213898,763.673462 473.921844,763.673462 476.000000,763.673462 
	C476.000000,760.391235 476.000000,757.420898 476.000000,753.466370 
M680.882385,727.019714 
	C680.095093,728.390320 679.307800,729.760864 678.193176,731.701233 
	C680.898438,731.950562 682.300537,732.079773 683.818481,732.219666 
	C683.818481,741.213745 683.818481,749.816711 683.818481,758.591919 
	C682.150391,758.915405 680.620178,759.212158 678.970947,759.531982 
	C679.047119,761.071594 679.110046,762.342224 679.177551,763.707397 
	C684.597778,763.707397 689.677368,763.707397 695.059937,763.707397 
	C694.909058,761.984741 694.786072,760.580261 694.678406,759.351379 
	C692.878601,759.020020 691.497681,758.765808 690.260376,758.538025 
	C690.260376,749.546082 690.260376,740.941772 690.260376,732.313293 
	C691.924194,732.071106 693.338318,731.865234 695.035339,731.618164 
	C694.891907,729.956726 694.773376,728.583374 694.636963,727.003479 
	C690.104370,727.003479 685.958130,727.003479 680.882385,727.019714 
M1070.035156,730.317139 
	C1071.553955,731.189697 1073.072754,732.062317 1074.759033,733.031128 
	C1074.759033,741.342163 1074.759033,749.946411 1074.759033,758.710754 
	C1073.135254,758.929871 1071.725220,759.120178 1070.010254,759.351624 
	C1070.134888,761.009277 1070.237915,762.380493 1070.340942,763.750610 
	C1075.695557,763.750610 1080.635498,763.750610 1085.673828,763.750610 
	C1085.673828,762.109497 1085.673828,760.720886 1085.673828,759.368530 
	C1083.977051,759.065796 1082.588013,758.817993 1081.255127,758.580139 
	C1081.255127,749.614563 1081.255127,741.010071 1081.255127,732.331848 
	C1082.903198,732.078735 1084.314087,731.862122 1086.027954,731.598938 
	C1085.877319,729.950989 1085.752197,728.581543 1085.608154,727.006348 
	C1081.056396,727.006348 1076.897705,726.858948 1072.764160,727.116394 
	C1071.803833,727.176086 1070.929321,728.615051 1070.035156,730.317139 
M841.035217,730.317444 
	C842.554138,731.189819 844.072998,732.062256 845.759155,733.030701 
	C845.759155,741.342285 845.759155,749.946533 845.759155,758.710632 
	C844.138428,758.929443 842.726440,759.120117 841.009888,759.351868 
	C841.134583,761.009399 841.237793,762.380676 841.340820,763.750244 
	C846.362488,763.750244 850.969238,763.750244 855.673645,763.750244 
	C855.673645,762.108826 855.673645,760.720398 855.673645,759.368652 
	C853.977966,759.065918 852.588379,758.817810 851.255127,758.579773 
	C851.255127,749.614258 851.255127,741.009766 851.255127,732.331909 
	C852.902527,732.078979 854.313965,731.862244 856.028198,731.599060 
	C855.877563,729.950745 855.752441,728.581177 855.608521,727.006287 
	C851.389465,727.006287 847.561646,726.847168 843.764221,727.116577 
	C842.798279,727.185181 841.929016,728.615479 841.035217,730.317444 
M498.454193,745.000000 
	C495.368622,745.000000 492.283020,745.000000 489.250061,745.000000 
	C489.250061,746.973511 489.250061,748.244019 489.250061,749.720459 
	C494.859741,749.720459 500.240082,749.720459 505.958801,749.720459 
	C505.859924,748.049377 505.778809,746.677917 505.679535,745.000000 
	C503.340820,745.000000 501.374573,745.000000 498.454193,745.000000 
z"/>
<path fill="#4CA1AF" opacity="1.000000" stroke="none" 
	d="
M630.932983,322.000000 
	C647.789368,321.331238 664.180420,320.982117 680.518250,319.857971 
	C688.614258,319.300842 696.807678,318.007843 704.603760,315.800415 
	C713.798279,313.196991 721.991821,304.545013 721.036743,295.605438 
	C720.439697,290.017334 717.938538,285.517792 713.549255,282.277191 
	C703.065247,274.536957 690.851318,271.562317 678.153076,271.115906 
	C663.839722,270.612671 649.489807,270.752319 635.165344,271.059540 
	C614.958374,271.492920 594.756958,272.250153 574.559631,273.037048 
	C561.850037,273.532257 549.156189,274.437958 536.445740,274.897278 
	C534.361938,274.972595 531.962402,274.110199 530.162659,272.966858 
	C519.434631,266.151489 509.254761,258.608398 501.692078,248.184494 
	C498.075500,243.199661 500.041748,238.819077 506.111847,238.036301 
	C522.356384,235.941452 538.590698,233.701187 554.884705,232.077698 
	C569.145203,230.656830 583.469971,229.756332 597.787476,229.067383 
	C611.372437,228.413681 625.007385,227.674530 638.580627,228.137634 
	C666.465881,229.089035 694.164368,232.043411 720.933777,240.505661 
	C737.425964,245.719101 752.821960,253.382629 765.531555,265.258606 
	C774.723206,273.847321 780.940491,284.794739 780.797058,297.651276 
	C780.629700,312.647217 773.735352,325.138824 762.383911,334.829010 
	C745.281128,349.428833 724.621887,355.741730 702.888367,358.934357 
	C688.788818,361.005585 674.597412,362.510712 660.409790,363.884216 
	C656.613708,364.251709 652.680725,363.205200 648.348267,363.879608 
	C655.067993,368.589294 661.788574,373.297791 668.507324,378.008881 
	C700.866882,400.698761 733.225525,423.389954 765.589233,446.073883 
	C766.118835,446.445099 766.710815,446.726929 767.269836,447.056854 
	C773.576355,450.778412 777.851257,454.898895 777.297546,463.638855 
	C776.493286,476.333679 777.666138,489.153412 777.979492,501.920319 
	C777.994141,502.517456 777.850159,503.118469 777.680176,504.570953 
	C767.914429,497.791809 758.623474,491.546967 749.546509,485.005188 
	C713.358154,458.924225 677.050964,433.001923 641.171143,406.501892 
	C624.175842,393.949524 607.783813,380.536316 591.628540,366.908478 
	C583.200012,359.798553 575.558716,351.665009 568.155579,343.458191 
	C562.159363,336.811127 565.631836,332.470154 571.802856,330.279907 
	C579.873413,327.415436 588.374573,325.288574 596.864380,324.198669 
	C607.969177,322.773010 619.244019,322.671265 630.932983,322.000000 
z"/>
<path fill="#848484" opacity="1.000000" stroke="none" 
	d="
M957.268127,389.238220 
	C944.009705,399.478851 931.249634,409.798859 917.963745,419.390625 
	C886.912598,441.807983 855.635742,463.913361 824.389526,486.059418 
	C816.248535,491.829437 807.889832,497.292694 799.615723,502.874084 
	C798.700562,503.491455 797.684143,503.958801 796.000000,504.891479 
	C796.000000,493.176636 796.048706,482.108917 795.959778,471.042328 
	C795.941467,468.769501 795.402527,466.501617 795.114624,464.230072 
	C794.570129,459.934204 795.168396,456.754364 799.447144,453.807068 
	C831.925964,431.434753 864.143738,408.683594 896.445190,386.053711 
	C906.065857,379.313660 915.693604,372.583618 925.102234,366.000000 
	C919.208252,366.000000 913.329773,366.550598 907.589294,365.894501 
	C891.802490,364.090088 875.919128,362.545563 860.373840,359.411102 
	C849.280823,357.174347 838.115906,353.669220 827.976624,348.702057 
	C812.176697,340.961853 799.103882,329.831665 793.885437,311.812164 
	C789.518005,296.731049 793.528381,283.536377 803.447937,272.206146 
	C818.163879,255.397339 837.880066,246.907547 858.849976,241.052704 
	C877.694702,235.791214 896.893555,232.411469 916.511719,232.013931 
	C937.613281,231.586334 958.740540,230.597061 979.814941,231.232391 
	C997.037598,231.751617 1014.208679,234.207123 1031.384277,235.981461 
	C1042.810547,237.161835 1054.206177,238.640076 1065.610229,240.029221 
	C1066.722168,240.164688 1067.802856,240.590576 1068.887085,240.917770 
	C1077.722778,243.584198 1077.965576,248.314209 1072.785522,254.385773 
	C1061.769531,267.297791 1047.767090,276.378967 1030.978516,279.624054 
	C1025.149536,280.750763 1018.637512,278.628082 1012.479370,277.708679 
	C998.083008,275.559357 983.755859,272.892822 969.320618,271.068848 
	C946.347961,268.166168 923.546997,270.533203 900.998535,275.035675 
	C890.797424,277.072693 880.646606,279.799011 870.849731,283.274628 
	C863.922852,285.732117 857.553833,289.923615 853.730225,296.752411 
	C850.554626,302.423981 851.660034,308.299988 856.755432,312.182953 
	C863.554749,317.364319 871.368164,320.301697 879.838867,320.932709 
	C892.193787,321.853088 904.579407,322.373627 916.955505,322.992676 
	C931.163269,323.703339 945.427673,323.792145 959.569275,325.163391 
	C972.235962,326.391663 984.860107,328.558868 997.327393,331.155060 
	C1004.808228,332.712830 1008.510925,337.317810 1006.761597,342.069763 
	C1005.244019,346.191864 1002.349304,350.221527 999.074158,353.207031 
	C987.511902,363.746643 975.534607,373.831390 963.689209,384.059113 
	C961.700073,385.776611 959.584656,387.347870 957.268127,389.238220 
z"/>
<path fill="#4CA1AF" opacity="1.000000" stroke="none" 
	d="
M112.019592,624.000000 
	C108.558990,624.000000 105.588867,624.000000 102.000000,624.000000 
	C102.000000,632.452332 101.999985,640.556519 102.000015,648.660645 
	C102.000038,653.160278 102.131767,657.664917 101.961777,662.158081 
	C101.804062,666.326782 103.693932,668.897034 107.274345,670.787659 
	C108.687042,671.533691 109.611244,673.204834 110.757896,674.454712 
	C110.447258,674.855774 110.136627,675.256775 109.825989,675.657837 
	C97.759407,675.657837 85.692833,675.657837 73.317719,675.657837 
	C73.317719,674.297302 73.317719,672.905334 73.317719,671.515930 
	C80.302116,669.917725 81.988335,667.865479 81.992233,660.696106 
	C82.009720,628.532043 81.967133,596.367981 82.035271,564.204041 
	C82.045441,559.401917 80.191750,556.205139 75.747444,554.214539 
	C74.321930,553.576050 73.396301,551.821411 72.241966,550.577454 
	C72.542892,550.145081 72.843811,549.712646 73.144737,549.280273 
	C74.568947,549.186951 75.993042,549.014282 77.417374,549.012451 
	C92.416130,548.992615 107.428276,548.610535 122.409439,549.124207 
	C134.232071,549.529602 145.815857,551.676636 155.771545,558.941772 
	C163.947327,564.908020 168.285553,572.802490 169.062393,582.982239 
	C170.498230,601.797607 161.452393,613.483459 143.664536,620.413452 
	C154.479691,635.875671 165.019791,651.053528 175.734100,666.107422 
	C176.905441,667.753235 179.188538,668.564636 180.756866,669.983276 
	C182.259720,671.342590 183.503357,672.988464 184.860886,674.508423 
	C184.500076,675.000732 184.139282,675.493042 183.778473,675.985352 
	C175.476700,675.985352 167.172592,676.078552 158.876053,675.870178 
	C157.809113,675.843384 156.478745,674.444763 155.781540,673.354675 
	C146.811142,659.329712 137.804901,645.324219 129.105179,631.131470 
	C126.203857,626.398254 123.395454,622.492676 116.998535,623.952271 
	C115.572975,624.277588 114.009850,624.000000 112.019592,624.000000 
M139.994034,565.492493 
	C129.166122,554.662842 115.539169,557.219604 102.377769,557.107056 
	C102.377769,577.008911 102.377769,596.391418 102.377769,616.467712 
	C110.192924,615.963867 117.641510,615.856140 124.984955,614.922058 
	C135.703415,613.558533 143.621521,607.347351 146.582977,597.246948 
	C149.795609,586.289917 149.597336,575.033936 139.994034,565.492493 
z"/>
<path fill="#4CA1AF" opacity="1.000000" stroke="none" 
	d="
M736.885315,553.981201 
	C755.495911,563.429321 767.421997,577.891479 771.485840,598.084717 
	C775.521423,618.137390 772.113281,636.795593 759.256531,653.274353 
	C747.911804,667.815063 732.746582,674.733093 714.741028,677.141113 
	C696.657410,679.559448 680.158997,675.847534 665.173706,665.940979 
	C650.188843,656.034851 641.826172,641.737244 638.919312,623.956970 
	C635.534912,603.256104 640.308289,584.755920 653.795715,568.942993 
	C662.844849,558.333618 675.061951,551.979553 688.620483,549.151306 
	C704.936157,545.747925 721.091309,546.833618 736.885315,553.981201 
M725.939026,558.442566 
	C719.723816,556.628479 713.546692,553.434082 707.286133,553.261169 
	C689.074890,552.758240 675.617737,561.545227 667.230713,577.562805 
	C660.477722,590.459900 658.792236,604.310913 659.794128,618.864014 
	C660.554321,629.907104 662.868530,640.283936 668.414368,649.710022 
	C676.194763,662.934204 687.651123,671.067200 703.341492,671.957458 
	C723.837219,673.120361 740.307861,659.351562 747.047424,640.264893 
	C752.371155,625.187988 753.202393,609.792908 749.857666,594.321228 
	C746.687683,579.658203 740.009460,566.952759 725.939026,558.442566 
z"/>
<path fill="#4CA1AF" opacity="1.000000" stroke="none" 
	d="
M436.257324,664.755737 
	C412.988342,635.160706 389.976654,605.821411 366.351196,575.699585 
	C366.187134,577.827576 366.012665,579.040771 366.011963,580.254089 
	C365.996460,607.407715 366.053680,634.561584 365.945129,661.714722 
	C365.927887,666.028076 367.478851,668.852844 371.320190,670.811768 
	C372.728912,671.530151 373.624176,673.255371 374.753662,674.521362 
	C374.441681,674.908081 374.129700,675.294739 373.817749,675.681458 
	C365.742889,675.681458 357.668030,675.681458 349.301056,675.681458 
	C349.301056,674.279053 349.301056,672.884644 349.301056,671.491638 
	C356.292908,669.939941 357.988770,667.868896 357.992584,660.665039 
	C358.009460,628.680420 357.976074,596.695679 358.023987,564.711182 
	C358.031769,559.520935 357.067383,555.321594 351.064056,553.900024 
	C349.934937,553.632629 349.277802,551.372131 347.739441,549.014709 
	C356.547943,549.014709 363.888336,548.561035 371.111023,549.283691 
	C373.355865,549.508301 375.563385,552.698303 377.310181,554.908386 
	C395.687317,578.159485 413.985901,601.472778 432.262878,624.802856 
	C437.486389,631.470581 442.569550,638.248291 448.999908,644.873535 
	C448.999908,643.409912 448.999908,641.946228 448.999908,640.482605 
	C448.999908,614.495117 448.902252,588.506836 449.098633,562.520813 
	C449.130371,558.321167 447.247620,556.250916 444.005463,554.389709 
	C442.491516,553.520569 441.425293,551.871460 440.156097,550.575928 
	C440.511047,550.139099 440.865997,549.702332 441.220947,549.265503 
	C449.318665,549.265503 457.416382,549.265503 465.690613,549.265503 
	C466.094879,551.627991 466.724060,553.477112 463.316742,554.426147 
	C458.372711,555.803162 456.940338,559.762390 456.952820,564.709167 
	C457.041412,599.858704 457.000000,635.008606 457.000000,670.158386 
	C457.000000,671.951904 457.000000,673.745422 457.000000,675.048828 
	C445.961609,679.406738 441.232574,672.219727 436.257324,664.755737 
z"/>
<path fill="#848484" opacity="1.000000" stroke="none" 
	d="
M965.491455,549.066345 
	C980.776184,549.014771 995.629028,548.514526 1010.434631,549.137817 
	C1025.427246,549.768921 1039.380493,553.320862 1050.601318,564.842834 
	C1061.061035,575.583618 1062.250977,599.677612 1051.062500,611.478638 
	C1041.182373,621.899719 1028.607910,625.928467 1014.853027,626.911133 
	C1007.770020,627.417114 1000.621155,626.999939 993.008118,626.999939 
	C993.008118,639.965881 992.796753,652.425537 993.229858,664.862732 
	C993.296875,666.787292 996.288696,668.635132 997.980652,670.469849 
	C999.215698,671.809021 1000.537415,673.068420 1001.820496,674.363342 
	C1001.469360,674.812561 1001.118225,675.261719 1000.767090,675.710938 
	C988.675171,675.710938 976.583313,675.710938 964.367310,675.710938 
	C963.778931,673.258423 963.428284,671.518250 966.739990,670.528198 
	C970.502502,669.403442 972.126343,666.551147 972.101440,662.179993 
	C971.914978,629.516846 972.000366,596.852173 971.999756,564.187988 
	C971.999634,557.114807 971.166260,555.957153 963.795044,553.353333 
	C964.200867,551.968994 964.619934,550.539795 965.491455,549.066345 
M993.000000,583.500000 
	C993.000000,595.584473 993.000000,607.668884 993.000000,619.996521 
	C997.916016,619.996521 1002.164001,620.558044 1006.196228,619.864868 
	C1012.247131,618.824646 1018.828674,618.090088 1023.978271,615.128296 
	C1037.515625,607.342102 1039.274048,595.152466 1037.643799,581.814453 
	C1036.804321,574.944946 1033.945679,568.514282 1027.795410,563.839172 
	C1017.250183,555.823303 1005.385132,556.828430 993.000000,557.221741 
	C993.000000,565.906921 993.000000,574.203430 993.000000,583.500000 
z"/>
<path fill="#4CA1AF" opacity="1.000000" stroke="none" 
	d="
M247.000000,659.930847 
	C247.000000,662.727234 247.000000,665.034363 247.000000,668.000000 
	C256.237579,668.000000 265.165253,668.026306 274.092651,667.989990 
	C279.248260,667.968994 284.604187,668.713745 289.513977,667.576782 
	C297.835785,665.649597 303.310364,659.937256 306.156769,651.724243 
	C306.965637,649.390259 307.199860,645.615479 312.237457,647.609985 
	C311.107056,656.783386 309.952759,666.150330 308.770111,675.747498 
	C278.517242,675.747498 248.444000,675.747498 218.362854,675.747498 
	C217.761978,673.194031 217.386963,671.313721 220.812897,670.544067 
	C226.952652,669.164673 226.821228,663.496887 226.858185,659.109802 
	C227.120483,627.963745 227.099243,596.813843 226.892990,565.666931 
	C226.859680,560.637146 225.861908,555.476013 219.479340,553.827698 
	C218.548172,553.587219 218.177475,551.176514 217.310410,549.240845 
	C247.075195,549.240845 275.817017,549.240845 304.766754,549.240845 
	C305.950165,558.821777 307.106995,568.187622 308.263824,577.553467 
	C307.763580,577.891479 307.263306,578.229553 306.763062,578.567566 
	C305.495636,577.416199 303.667297,576.507324 303.048553,575.075684 
	C297.476807,562.184143 291.523193,556.353699 276.034271,556.934509 
	C266.580688,557.289001 257.102966,557.000000 247.319824,557.000000 
	C247.319824,574.054321 247.319824,590.764038 247.319824,608.437622 
	C257.008820,607.952393 266.549042,607.719360 276.036621,606.886414 
	C280.188507,606.521973 283.186523,603.818054 284.172516,599.435059 
	C284.807861,596.610657 286.262634,595.050049 289.691345,596.390625 
	C289.691345,606.601196 289.691345,617.012024 289.691345,627.706421 
	C288.265503,627.706421 286.869232,627.706421 285.479340,627.706421 
	C283.556763,618.902039 279.889862,616.004150 270.711975,616.002625 
	C263.383240,616.001404 256.054535,616.021118 248.725845,616.043030 
	C248.403915,616.044006 248.082321,616.159180 247.000000,616.367737 
	C247.000000,630.621521 247.000000,645.031494 247.000000,659.930847 
z"/>
<path fill="#848484" opacity="1.000000" stroke="none" 
	d="
M1154.000000,549.000000 
	C1167.798462,549.000000 1181.096802,549.000000 1194.616577,549.000000 
	C1195.826294,558.736450 1196.989624,568.098450 1198.152954,577.460510 
	C1197.699829,577.806946 1197.246826,578.153381 1196.793823,578.499817 
	C1195.515991,577.384460 1193.653564,576.519714 1193.051514,575.114746 
	C1187.391968,561.908630 1181.350952,556.308533 1165.499878,556.930481 
	C1155.884644,557.307739 1146.242432,557.000000 1136.309082,557.000000 
	C1136.309082,574.000427 1136.309082,590.590942 1136.309082,608.518372 
	C1146.733032,607.921265 1157.268677,607.805664 1167.625244,606.384583 
	C1170.242554,606.025391 1172.285767,601.496643 1174.597168,598.887756 
	C1175.600220,597.755676 1176.614380,596.633484 1177.623413,595.506775 
	C1178.010254,595.786926 1178.397095,596.067139 1178.783936,596.347290 
	C1178.783936,606.640930 1178.783936,616.934570 1178.783936,628.958923 
	C1176.946899,627.384094 1175.361206,626.669128 1174.864380,625.493774 
	C1171.726318,618.070923 1168.840454,616.009277 1160.807739,616.001709 
	C1152.815796,615.994202 1144.823853,616.000061 1136.416504,616.000061 
	C1136.416504,633.235107 1136.416504,650.276733 1136.416504,668.000000 
	C1142.266846,668.000000 1148.199707,668.000000 1154.132568,668.000000 
	C1160.630615,668.000000 1167.136108,667.799927 1173.624878,668.045227 
	C1184.289917,668.448364 1191.562500,662.867859 1196.975098,650.253662 
	C1197.624390,648.740784 1199.252563,647.647949 1200.427124,646.360474 
	C1200.990112,646.666504 1201.553101,646.972473 1202.116089,647.278503 
	C1201.546631,651.915344 1200.970459,656.551392 1200.409668,661.189270 
	C1199.838989,665.911377 1199.283569,670.635315 1198.683472,675.677246 
	C1168.622681,675.677246 1138.553467,675.677246 1108.361938,675.677246 
	C1107.769653,673.248413 1107.436035,671.514038 1110.745239,670.525513 
	C1114.506470,669.401794 1116.125732,666.545654 1116.101318,662.176758 
	C1115.916016,629.021240 1115.916626,595.863770 1116.099854,562.708252 
	C1116.124268,558.302795 1114.162598,556.128845 1110.721802,554.221802 
	C1109.312866,553.440918 1108.400391,551.764465 1107.262085,550.495422 
	C1107.577515,549.996948 1107.892822,549.498474 1108.208252,549.000000 
	C1123.305542,549.000000 1138.402710,549.000000 1154.000000,549.000000 
z"/>
<path fill="#848484" opacity="1.000000" stroke="none" 
	d="
M884.072083,644.977844 
	C882.138062,634.369690 874.146973,629.613892 866.324097,624.728027 
	C854.533447,617.364014 841.601379,611.677612 831.841309,601.330994 
	C822.408020,591.330994 820.748718,579.528503 825.179199,567.079712 
	C829.384949,555.262390 838.910217,549.945496 850.980530,547.890442 
	C862.420227,545.942749 873.139587,547.701416 883.653198,552.029053 
	C884.856689,552.524475 885.961304,553.294312 887.191772,553.684448 
	C896.476868,556.628052 898.295715,563.364258 897.095703,572.085876 
	C896.535828,576.155334 897.000000,580.365601 897.000000,584.657166 
	C894.049927,585.261230 892.751160,584.885559 891.860168,581.711670 
	C888.702637,570.463989 883.910889,560.069702 872.234924,555.139221 
	C862.620056,551.079041 850.132385,552.509766 844.943176,560.268250 
	C837.947266,570.727722 840.522095,582.372620 852.011230,589.929077 
	C863.071106,597.203186 874.540344,603.851807 885.704529,610.971497 
	C893.741943,616.097107 900.509399,622.455322 903.070435,632.110596 
	C906.976562,646.836731 900.509399,664.635925 887.008301,671.538452 
	C875.497070,677.423645 863.540039,678.821228 850.727600,677.236755 
	C839.777893,675.882629 829.451233,673.410767 820.415466,667.000671 
	C818.749878,665.819092 817.260986,663.233643 817.153320,661.218018 
	C816.764587,653.941284 817.000488,646.631287 817.000488,639.541382 
	C820.473022,638.185486 821.794495,639.522339 822.794373,642.305176 
	C826.234131,651.878662 831.036865,660.560730 839.864685,666.337952 
	C851.420654,673.900513 866.050476,674.096130 876.446533,666.836792 
	C882.230896,662.797607 886.123352,651.922729 884.072083,644.977844 
z"/>
<path fill="#848484" opacity="1.000000" stroke="none" 
	d="
M1265.749756,658.250732 
	C1254.307983,646.029541 1248.224731,632.118408 1247.881348,615.487183 
	C1247.573242,600.573914 1250.419067,586.790222 1258.910889,574.368591 
	C1268.591675,560.207703 1282.262085,552.332275 1298.815796,548.994873 
	C1319.091919,544.907043 1338.130737,548.547729 1356.320557,557.996277 
	C1359.049927,559.414001 1360.161621,560.982971 1360.070679,564.085571 
	C1359.851807,571.549988 1359.999756,579.025208 1359.999756,586.441895 
	C1356.159302,587.824646 1354.901001,586.396484 1353.835083,583.009277 
	C1349.303467,568.608826 1340.290527,558.550171 1325.199951,554.614136 
	C1310.145386,550.687500 1292.540894,556.291077 1282.818237,569.278137 
	C1273.630371,581.550903 1270.401489,595.294861 1269.943115,610.204102 
	C1269.471558,625.544067 1272.385986,639.788025 1280.905884,652.856812 
	C1295.461182,675.183594 1330.221558,679.174011 1347.539551,659.668762 
	C1351.979614,654.667908 1354.446045,647.935608 1357.986938,642.100586 
	C1358.864868,640.653625 1360.397217,639.603821 1361.628662,638.371338 
	C1362.231445,638.711243 1362.834229,639.051147 1363.437012,639.391052 
	C1362.215088,647.767700 1361.212280,656.187500 1359.581543,664.483765 
	C1359.265381,666.092163 1356.652100,667.484558 1354.839478,668.526062 
	C1340.538208,676.743530 1325.342529,679.309631 1308.860474,677.265869 
	C1294.449097,675.478882 1281.557007,670.877014 1270.136475,662.020813 
	C1268.708984,660.913818 1267.379517,659.680298 1265.749756,658.250732 
z"/>
<path fill="#848484" opacity="1.000000" stroke="none" 
	d="
M1446.000000,614.000000 
	C1446.000000,594.879333 1446.000000,576.258606 1446.000000,556.620605 
	C1438.067017,557.070251 1430.480713,556.967896 1423.069336,558.056030 
	C1413.961426,559.393250 1409.898071,566.587219 1407.095459,574.409790 
	C1406.096069,577.199219 1405.015869,578.789429 1401.509766,577.585693 
	C1402.639648,568.197327 1403.778931,558.729675 1404.927124,549.187866 
	C1439.195068,549.187866 1472.787109,549.187866 1506.858154,549.187866 
	C1508.033081,558.675964 1509.192017,568.034668 1510.363525,577.495056 
	C1507.012939,578.357605 1505.707397,577.794312 1504.794800,574.755615 
	C1501.066406,562.340271 1492.022583,556.001770 1479.457397,556.948975 
	C1475.187256,557.270874 1470.872681,557.000000 1466.000000,557.000000 
	C1466.000000,559.208740 1466.000000,560.983826 1466.000000,562.758911 
	C1466.000000,595.400391 1465.998291,628.041931 1466.001465,660.683411 
	C1466.002075,667.884460 1467.561890,669.834167 1474.803711,671.561951 
	C1474.803711,672.817078 1474.803711,674.116272 1474.803711,675.708008 
	C1462.349121,675.708008 1449.932251,675.708008 1437.211670,675.708008 
	C1437.148071,674.333679 1437.089478,673.068481 1437.036865,671.933044 
	C1437.422974,671.572632 1437.621704,671.222107 1437.880737,671.169617 
	C1444.269775,669.876282 1445.971191,667.823608 1445.987915,660.964233 
	C1446.025757,645.476196 1445.999878,629.988098 1446.000000,614.000000 
z"/>
<path fill="#4CA1AF" opacity="1.000000" stroke="none" 
	d="
M544.000000,616.000000 
	C544.000000,596.204102 544.000000,576.908203 544.000000,556.882629 
	C533.515991,557.953003 522.530151,553.809448 513.851196,561.840637 
	C510.108826,565.303711 508.007141,570.515503 505.029449,574.843018 
	C504.053223,576.261719 502.664856,577.396912 501.464935,578.661743 
	C500.868256,578.343079 500.271576,578.024475 499.674896,577.705811 
	C500.794342,568.331543 501.913818,558.957336 503.102875,549.000000 
	C520.000366,549.000000 536.779419,549.000000 553.558411,549.000000 
	C570.384583,549.000000 587.210754,549.000000 604.879089,549.000000 
	C606.105164,558.456238 607.332336,567.921082 608.574524,577.501404 
	C605.373840,578.874756 604.007812,577.616516 602.920837,574.481934 
	C598.891907,562.863525 591.955688,556.529480 578.311218,556.976807 
	C573.820435,557.124084 569.320740,557.000000 564.315735,557.000000 
	C564.204712,558.539246 564.013855,559.957031 564.013123,561.374939 
	C563.996460,594.531311 563.988647,627.687744 564.009521,660.844116 
	C564.013916,667.888489 565.887085,670.113647 572.728271,671.248047 
	C572.728271,672.634094 572.728271,674.065002 572.728271,675.749023 
	C560.257874,675.749023 547.832886,675.749023 535.208801,675.749023 
	C535.208801,674.276917 535.208801,672.999939 535.208801,671.558960 
	C535.573364,671.397949 535.971558,671.131470 536.405701,671.044128 
	C542.055969,669.906738 543.980408,667.680359 543.990662,661.986023 
	C544.017944,646.824097 543.999939,631.661987 544.000000,616.000000 
z"/>
<path fill="#848484" opacity="1.000000" stroke="none" 
	d="
M1017.466125,764.737915 
	C999.472900,763.041443 997.755798,741.973755 1005.707825,732.022034 
	C1009.591309,727.161987 1015.729492,725.838867 1021.743469,726.168518 
	C1027.077148,726.460876 1031.835571,728.537964 1037.835083,727.460327 
	C1047.339355,725.753235 1057.375000,727.005310 1067.587891,727.005310 
	C1067.748901,728.576904 1067.890137,729.954834 1068.092163,731.927368 
	C1063.333008,731.927368 1058.928589,731.927368 1054.000000,731.927368 
	C1054.000000,737.586975 1054.000000,742.701477 1054.000000,747.816040 
	C1054.000000,752.960327 1054.000000,758.104614 1054.000000,763.618042 
	C1052.020386,763.618042 1050.312866,763.618042 1048.000000,763.618042 
	C1048.000000,758.530701 1048.000000,753.417969 1048.000000,748.305176 
	C1048.000000,743.149048 1048.000000,737.992981 1048.000000,732.418945 
	C1043.433228,732.418945 1039.040649,732.418945 1034.352173,732.418945 
	C1034.135132,733.407654 1033.873779,734.598083 1033.604614,735.824768 
	C1018.880554,730.253235 1013.595459,730.424194 1009.426208,737.249817 
	C1006.084045,742.721313 1006.204163,750.406494 1010.939209,755.455627 
	C1015.734741,760.569153 1022.548218,761.762878 1033.126953,755.217773 
	C1034.747437,760.614685 1034.471924,761.546997 1029.390015,762.927734 
	C1025.642578,763.945862 1021.708069,764.275146 1017.466125,764.737915 
z"/>
<path fill="#848484" opacity="1.000000" stroke="none" 
	d="
M1148.744629,736.226685 
	C1151.907837,741.672668 1154.815430,746.844971 1157.723022,752.017273 
	C1158.079468,751.921997 1158.435791,751.826782 1158.792236,751.731506 
	C1158.792236,743.708496 1158.792236,735.685425 1158.792236,727.342163 
	C1161.046387,727.342163 1162.754883,727.342163 1164.737793,727.342163 
	C1164.737793,739.377991 1164.737793,751.311096 1164.737793,763.447632 
	C1159.744263,765.325867 1157.088623,763.043518 1154.838257,758.667053 
	C1150.895996,751.000427 1146.483032,743.575806 1141.256836,736.152222 
	C1141.256836,745.279907 1141.256836,754.407654 1141.256836,763.751892 
	C1138.900757,763.751892 1137.293457,763.751892 1135.342285,763.751892 
	C1135.342285,751.701538 1135.342285,739.639221 1135.342285,727.585571 
	C1144.012695,726.545227 1143.017944,725.155823 1148.744629,736.226685 
z"/>
<path fill="#848484" opacity="1.000000" stroke="none" 
	d="
M880.741821,753.223633 
	C877.435364,747.291260 874.384277,741.631226 871.333130,735.971191 
	C870.962158,736.068054 870.591125,736.164856 870.220093,736.261719 
	C870.220093,745.282471 870.220093,754.303162 870.220093,763.651367 
	C867.956909,763.651367 866.247925,763.651367 864.267212,763.651367 
	C864.267212,751.635620 864.267212,739.702881 864.271240,727.769287 
	C871.175964,725.975952 872.799988,726.734802 875.934387,732.599792 
	C879.422363,739.126465 883.090210,745.557068 887.790283,751.733093 
	C887.790283,743.710083 887.790283,735.687073 887.790283,727.343079 
	C890.052063,727.343079 891.760986,727.343079 893.737061,727.343079 
	C893.737061,739.376038 893.737061,751.309204 893.737061,763.570801 
	C889.745300,764.700073 886.500610,764.242432 884.497192,759.981018 
	C883.453674,757.761414 882.171448,755.653992 880.741821,753.223633 
z"/>
<path fill="#848484" opacity="1.000000" stroke="none" 
	d="
M607.011475,758.071533 
	C602.712158,750.456543 598.499451,743.211670 594.286804,735.966797 
	C593.919128,736.071777 593.551453,736.176758 593.183777,736.281677 
	C593.183777,745.307495 593.183777,754.333313 593.183777,763.669922 
	C590.926819,763.669922 589.217957,763.669922 587.252808,763.669922 
	C587.252808,751.597473 587.252808,739.664551 587.252808,727.392395 
	C592.052917,726.722229 596.173889,725.870605 598.842590,732.057983 
	C601.805420,738.927551 606.164185,745.195923 609.936340,751.713867 
	C610.202576,752.173767 610.642883,752.532837 611.834656,753.879089 
	C611.834656,744.345642 611.834656,735.981201 611.834656,727.324036 
	C613.752380,727.324036 615.127625,727.324036 616.752930,727.324036 
	C616.752930,739.403809 616.752930,751.339661 616.752930,763.306091 
	C611.427185,765.770203 608.900879,762.823914 607.011475,758.071533 
z"/>
<path fill="#848484" opacity="1.000000" stroke="none" 
	d="
M366.996368,746.962341 
	C364.713898,742.718262 362.515472,738.838013 360.317078,734.957703 
	C359.951202,735.060364 359.585297,735.163025 359.219421,735.265686 
	C359.219421,744.613953 359.219421,753.962219 359.219421,763.668518 
	C357.319458,763.776672 355.943970,763.854919 354.274597,763.949951 
	C354.274597,751.551025 354.274597,739.497009 354.274597,727.406799 
	C359.355957,726.355652 362.905792,726.594299 365.344391,732.298645 
	C368.306946,739.228516 372.786102,745.510010 377.696838,751.787964 
	C377.696838,743.784119 377.696838,735.780334 377.696838,727.272766 
	C379.942108,727.171143 381.652649,727.093750 383.693604,727.001343 
	C383.693604,739.386963 383.693604,751.442444 383.693604,763.479309 
	C379.050873,764.919250 375.913239,764.168701 373.908325,759.226440 
	C372.204865,755.027405 369.398682,751.275757 366.996368,746.962341 
z"/>
<path fill="#848484" opacity="1.000000" stroke="none" 
	d="
M531.389221,749.914124 
	C530.599182,748.421143 530.260620,746.985413 529.843018,745.214966 
	C535.490601,745.214966 540.423462,745.214966 545.678467,745.214966 
	C545.678467,750.635498 545.678467,755.892822 545.678467,761.452454 
	C538.520264,764.364441 531.252014,766.164429 523.257202,763.185364 
	C514.896912,760.070190 511.556885,754.642212 512.001709,743.155334 
	C512.292542,735.644958 517.800781,728.302673 524.934753,727.227539 
	C529.851379,726.486511 535.021912,726.617676 539.982239,727.193054 
	C545.711975,727.857605 546.298889,729.197876 545.687012,735.546387 
	C542.245239,734.353210 538.749146,733.294556 535.374146,731.935425 
	C529.828857,729.702087 524.974731,731.856567 521.489380,735.457336 
	C517.070862,740.022156 516.755127,746.240173 519.170044,752.057373 
	C521.412537,757.459412 526.495789,759.451904 531.837646,759.880432 
	C539.330566,760.481689 541.431213,757.995544 540.589844,749.971375 
	C537.732483,749.971375 534.786560,749.971375 531.389221,749.914124 
z"/>
<path fill="#848484" opacity="1.000000" stroke="none" 
	d="
M1092.006470,741.453369 
	C1093.450317,732.007263 1099.244141,727.335266 1107.791138,726.235352 
	C1113.909180,725.447998 1119.750854,727.279419 1123.669800,732.306030 
	C1128.813110,738.903137 1129.140503,746.427307 1126.358276,754.160034 
	C1123.799683,761.271606 1117.917236,763.976257 1111.151489,764.918579 
	C1101.160400,766.310120 1092.110840,758.072388 1092.003418,747.889893 
	C1091.982300,745.892151 1092.001465,743.893982 1092.006470,741.453369 
M1117.432373,757.040283 
	C1121.379395,753.557190 1122.269287,748.853149 1121.911621,744.044006 
	C1121.250488,735.157043 1114.725952,729.528320 1107.944092,731.526001 
	C1099.736450,733.943604 1095.407837,742.483582 1098.347656,750.752869 
	C1100.509033,756.832581 1107.342773,763.189758 1117.432373,757.040283 
z"/>
<path fill="#848484" opacity="1.000000" stroke="none" 
	d="
M793.000122,755.122192 
	C793.000000,758.221313 793.000000,760.848877 793.000000,763.768005 
	C790.953491,763.860962 789.349121,763.933777 787.366577,764.023865 
	C787.366577,751.747925 787.366577,739.700317 787.366577,726.661804 
	C793.259338,727.082458 799.096924,727.499207 804.934448,727.915955 
	C809.234070,728.222961 812.043213,730.809753 812.841309,734.671204 
	C813.767151,739.149841 813.151428,743.654175 808.810974,746.607300 
	C808.019714,747.145508 807.169800,747.597595 806.138550,748.214050 
	C810.690186,753.341431 815.107422,758.317383 819.652710,763.437622 
	C813.454102,765.522705 810.178528,762.245178 806.956787,758.119202 
	C803.611877,753.835449 800.678894,748.378967 793.243774,750.400635 
	C793.166992,751.739929 793.083618,753.195251 793.000122,755.122192 
M800.507507,744.138062 
	C805.590881,743.361206 807.980164,740.454102 806.948669,736.300781 
	C805.992249,732.449585 799.936829,730.912048 793.267700,732.804077 
	C793.267700,736.740173 793.267700,740.661499 793.267700,745.031372 
	C795.644165,744.890198 797.733948,744.766052 800.507507,744.138062 
z"/>
<path fill="#848484" opacity="1.000000" stroke="none" 
	d="
M931.339600,755.253052 
	C929.158813,762.288025 920.776489,766.549377 912.813904,764.890259 
	C911.219238,764.557922 909.628357,764.195557 908.021362,763.935974 
	C903.226685,763.161438 900.428101,761.034058 902.366760,755.669983 
	C905.476929,756.755981 908.612671,758.266235 911.914917,758.879395 
	C914.827271,759.420105 918.105347,759.562805 920.880615,758.735901 
	C922.840149,758.151978 925.509705,755.656311 925.512939,754.009521 
	C925.516174,752.362610 922.878723,749.955383 920.901550,749.221619 
	C917.132568,747.822937 912.933289,747.633972 909.052124,746.475586 
	C903.522278,744.825195 901.567261,741.628418 902.018005,735.719788 
	C902.403015,730.673706 906.155518,728.010376 910.241577,727.265564 
	C915.088135,726.382202 920.250977,726.834473 925.235596,727.228027 
	C929.651306,727.576599 930.922791,730.467224 929.603088,734.693298 
	C926.234070,733.719849 922.910889,732.405090 919.467224,731.880615 
	C916.869080,731.484802 913.888306,731.525269 911.514160,732.469116 
	C909.949036,733.091431 907.883301,736.145203 908.303345,737.251892 
	C909.031067,739.169617 911.279358,741.132141 913.309631,741.799805 
	C917.138611,743.059021 921.365479,743.075684 925.243469,744.226868 
	C930.040833,745.650879 932.048767,749.500671 931.339600,755.253052 
z"/>
<path fill="#848484" opacity="1.000000" stroke="none" 
	d="
M1186.430054,731.269409 
	C1185.605225,731.619751 1185.056519,731.683533 1184.710449,731.982117 
	C1182.786621,733.642578 1180.911865,735.359924 1179.020264,737.057739 
	C1180.999756,738.701904 1182.745117,740.917114 1185.016968,741.847900 
	C1187.961426,743.054321 1191.390259,743.012268 1194.494873,743.908508 
	C1200.491699,745.639771 1203.145264,748.727173 1202.979248,753.226135 
	C1202.818237,757.584839 1198.571167,762.584900 1194.143921,763.909485 
	C1187.725708,765.829834 1181.414795,764.717896 1175.383057,762.711914 
	C1173.860718,762.205505 1173.300903,758.804810 1172.298706,756.734192 
	C1172.745117,756.431641 1173.191406,756.129028 1173.637695,755.826477 
	C1176.039062,756.687744 1178.382080,757.967285 1180.855469,758.312622 
	C1184.606201,758.836304 1188.526001,759.214600 1192.216064,758.640259 
	C1193.957520,758.369202 1196.737793,755.528198 1196.540283,754.234253 
	C1196.251587,752.341919 1194.005859,749.995667 1192.061401,749.268982 
	C1188.294678,747.861084 1184.116821,747.600891 1180.182251,746.582886 
	C1175.277710,745.313782 1172.989380,742.081970 1172.927734,736.873596 
	C1172.862183,731.362488 1176.487549,728.339417 1180.631348,727.464355 
	C1185.731689,726.387207 1191.265503,726.952087 1196.567383,727.370117 
	C1200.739868,727.699097 1201.897827,730.575867 1200.693115,734.453796 
	C1196.064087,733.334717 1191.431885,732.213074 1186.430054,731.269409 
z"/>
<path fill="#848484" opacity="1.000000" stroke="none" 
	d="
M976.115662,739.747864 
	C982.567566,740.606995 988.942505,741.006958 995.721680,741.432312 
	C995.783020,742.696350 995.849548,744.069214 995.935730,745.847412 
	C989.332642,745.847412 983.066040,745.847412 976.401611,745.847412 
	C976.401611,750.259033 976.401611,754.296631 976.401611,758.906982 
	C982.736450,758.906982 989.123413,758.906982 995.738220,758.906982 
	C995.738220,760.739746 995.738220,762.011047 995.738220,763.641907 
	C987.421631,763.641907 979.041626,763.641907 970.328735,763.641907 
	C970.328735,751.604553 970.328735,739.580811 970.328735,727.277588 
	C978.715088,727.277588 986.958496,727.277588 995.626709,727.277588 
	C995.753723,728.594116 995.886536,729.970642 996.075256,731.926697 
	C989.328186,731.926697 982.926392,731.926697 976.038696,731.926697 
	C976.038696,734.739929 976.038696,737.014282 976.115662,739.747864 
z"/>
<path fill="#848484" opacity="1.000000" stroke="none" 
	d="
M560.536499,732.484131 
	C560.190857,735.281128 560.190857,737.762207 560.190857,740.807312 
	C566.588806,740.807312 572.981201,740.807312 579.669739,740.807312 
	C579.669739,742.733582 579.669739,744.106750 579.669739,745.877686 
	C573.295654,745.877686 567.029663,745.877686 560.384827,745.877686 
	C560.384827,750.293091 560.384827,754.330078 560.384827,758.936768 
	C566.773254,758.936768 573.164429,758.936768 579.757568,758.936768 
	C579.757568,760.772583 579.757568,762.048645 579.757568,763.662903 
	C571.400024,763.662903 563.014526,763.662903 554.312683,763.662903 
	C554.312683,751.571777 554.312683,739.548462 554.312683,727.261902 
	C562.749390,727.261902 570.993530,727.261902 579.647827,727.261902 
	C579.761536,728.625183 579.876282,730.000732 580.057068,732.168213 
	C573.415283,732.168213 567.148682,732.168213 560.536499,732.484131 
z"/>
<path fill="#848484" opacity="1.000000" stroke="none" 
	d="
M405.998474,727.000000 
	C410.466309,727.000000 414.438385,727.000000 418.688995,727.000000 
	C418.688995,728.773315 418.688995,730.148438 418.688995,731.931824 
	C412.240479,731.931824 405.963074,731.931824 399.348572,731.931824 
	C399.348572,735.037292 399.348572,737.745361 399.348572,740.879944 
	C405.726196,740.879944 411.997101,740.879944 418.634521,740.879944 
	C418.765442,742.642822 418.867615,744.018799 419.001312,745.819031 
	C412.376404,745.819031 406.097443,745.819031 399.410522,745.819031 
	C399.410522,750.247131 399.410522,754.291626 399.410522,758.921631 
	C405.752136,758.921631 412.154144,758.921631 418.757782,758.921631 
	C418.757782,760.772827 418.757782,762.048279 418.757782,763.665649 
	C410.378174,763.665649 401.979736,763.665649 393.289062,763.665649 
	C393.289062,751.625183 393.289062,739.699402 393.289062,727.000000 
	C397.329987,727.000000 401.416382,727.000000 405.998474,727.000000 
z"/>
<path fill="#848484" opacity="1.000000" stroke="none" 
	d="
M751.297852,753.345703 
	C754.370850,745.210571 757.127319,737.369751 760.239746,729.672852 
	C760.734009,728.450623 762.731018,727.434082 764.208435,727.101990 
	C766.655334,726.552063 768.915344,726.780518 770.050049,729.935181 
	C773.192932,738.672302 776.640076,747.299683 779.926086,755.985901 
	C780.883179,758.515747 781.702820,761.097534 782.663269,763.880920 
	C780.457825,763.880920 778.643860,763.880920 776.737122,763.880920 
	C776.557983,763.673218 776.276245,763.467163 776.158020,763.191040 
	C774.883606,760.215759 774.265869,755.308960 772.247803,754.645935 
	C768.036621,753.262207 763.033020,753.701172 758.479248,754.314392 
	C757.146545,754.493835 755.613586,757.674866 755.252258,759.675232 
	C754.421448,764.275452 751.903320,764.700317 747.792053,763.389343 
	C748.913879,760.098083 750.006470,756.892822 751.297852,753.345703 
M767.493896,739.985779 
	C766.802002,738.304138 766.110046,736.622559 764.971191,733.854614 
	C762.825500,739.599426 761.147766,744.091431 759.398438,748.775085 
	C763.270081,748.775085 766.802856,748.775085 770.721375,748.775085 
	C769.713135,745.851746 768.815491,743.249146 767.493896,739.985779 
z"/>
<path fill="#4CA1AF" opacity="1.000000" stroke="none" 
	d="
M642.257446,758.430054 
	C645.967163,748.809692 649.395935,739.511047 653.126221,730.334900 
	C653.695923,728.933472 655.518433,727.490967 657.011841,727.143555 
	C659.282776,726.615356 661.807983,726.468872 662.990967,729.708740 
	C667.115479,741.004578 671.439331,752.227600 675.801086,763.779541 
	C673.565002,763.779541 671.657654,763.779541 669.690857,763.779541 
	C669.529968,763.602173 669.241943,763.407654 669.127075,763.139038 
	C667.858948,760.174011 667.242859,755.274170 665.239624,754.622986 
	C661.020386,753.251648 656.037109,753.754333 651.459595,754.284363 
	C650.261108,754.423096 648.911499,757.369629 648.484070,759.223267 
	C647.511108,763.443054 645.532898,765.239624 641.007385,763.419983 
	C641.358704,761.897034 641.716858,760.344421 642.257446,758.430054 
M654.297241,748.994141 
	C657.271301,748.994141 660.245422,748.994141 663.828369,748.994141 
	C661.990479,743.884583 660.280090,739.129578 658.240417,733.459106 
	C656.881165,737.006592 655.672241,739.774658 654.772949,742.639893 
	C654.132568,744.680237 653.908936,746.851318 654.297241,748.994141 
z"/>
<path fill="#848484" opacity="1.000000" stroke="none" 
	d="
M444.323944,743.268188 
	C444.835602,745.630859 445.211304,747.946106 446.374512,749.754761 
	C449.355621,754.389954 452.686768,758.800049 455.908783,763.343567 
	C450.012634,765.693970 447.563110,762.235962 445.126587,758.466797 
	C439.260620,749.392334 439.168488,749.385071 433.129425,758.408447 
	C430.748199,761.966309 428.536316,765.501343 422.825104,763.406372 
	C425.980530,758.992554 428.790283,754.428101 432.245941,750.420593 
	C435.232147,746.957581 435.873047,744.466553 432.451111,740.728271 
	C428.867432,736.813293 426.208557,732.051758 422.938293,727.363098 
	C434.156494,724.974060 433.475525,736.418884 439.923309,740.286438 
	C441.892212,737.601624 444.068878,734.880127 445.969482,731.977844 
	C448.223724,728.535522 450.524719,725.507019 456.029236,727.620239 
	C452.128815,732.841125 448.337738,737.915588 444.323944,743.268188 
z"/>
<path fill="#848484" opacity="1.000000" stroke="none" 
	d="
M721.922607,728.624390 
	C732.872803,725.239075 732.525330,724.972473 745.836365,729.711670 
	C745.836365,731.638550 745.836365,733.602722 745.836365,736.241333 
	C737.061096,731.520569 728.177917,727.304138 721.209167,737.811829 
	C717.545715,743.335815 718.760376,751.564514 723.330566,755.882385 
	C728.883240,761.128296 735.016602,761.045471 745.185364,755.231567 
	C746.693726,760.740051 746.380676,761.223816 741.367126,763.032654 
	C735.984314,764.974670 730.570862,765.329407 725.027100,763.941101 
	C718.628906,762.338684 713.277771,755.585754 713.186340,746.980774 
	C713.111694,739.958984 714.423462,732.850891 721.922607,728.624390 
z"/>
<path fill="#848484" opacity="1.000000" stroke="none" 
	d="
M955.260620,749.848267 
	C951.722900,749.949219 948.602051,749.949219 945.084839,749.949219 
	C945.084839,754.769165 945.084839,759.042969 945.084839,763.647217 
	C942.965515,763.647217 941.255615,763.647217 939.270508,763.647217 
	C939.270508,751.641541 939.270508,739.705566 939.270508,727.089966 
	C944.159668,727.089966 949.143616,726.595154 953.985962,727.212280 
	C960.366943,728.025574 964.376953,732.194214 964.955017,737.328857 
	C965.515747,742.309753 961.636047,747.502869 955.260620,749.848267 
M947.578125,744.991943 
	C948.741028,744.994019 949.903870,745.001343 951.066772,744.997253 
	C955.289062,744.982483 958.320312,742.713501 958.755432,738.808105 
	C959.165466,735.128052 956.184143,732.907043 952.639648,732.342834 
	C950.279663,731.967224 947.811401,732.271545 944.198059,732.271545 
	C945.086731,736.833008 945.878418,740.896667 947.578125,744.991943 
z"/>
<path fill="#848484" opacity="1.000000" stroke="none" 
	d="
M476.000000,753.958496 
	C476.000000,757.420898 476.000000,760.391235 476.000000,763.673462 
	C473.921844,763.673462 472.213898,763.673462 470.104950,763.673462 
	C470.104950,753.268311 470.104950,743.001465 470.104950,732.158813 
	C465.673218,732.158813 461.612061,732.158813 457.295105,732.158813 
	C457.295105,730.203796 457.295105,728.829590 457.295105,727.226257 
	C468.121216,727.226257 478.716858,727.226257 489.705597,727.226257 
	C489.780182,728.691589 489.850189,730.066956 489.941071,731.852722 
	C485.328918,731.852722 481.052032,731.852722 476.000000,731.852722 
	C476.000000,739.302979 476.000000,746.384705 476.000000,753.958496 
z"/>
<path fill="#4CA1AF" opacity="1.000000" stroke="none" 
	d="
M681.347168,727.011597 
	C685.958130,727.003479 690.104370,727.003479 694.636963,727.003479 
	C694.773376,728.583374 694.891907,729.956726 695.035339,731.618164 
	C693.338318,731.865234 691.924194,732.071106 690.260376,732.313293 
	C690.260376,740.941772 690.260376,749.546082 690.260376,758.538025 
	C691.497681,758.765808 692.878601,759.020020 694.678406,759.351379 
	C694.786072,760.580261 694.909058,761.984741 695.059937,763.707397 
	C689.677368,763.707397 684.597778,763.707397 679.177551,763.707397 
	C679.110046,762.342224 679.047119,761.071594 678.970947,759.531982 
	C680.620178,759.212158 682.150391,758.915405 683.818481,758.591919 
	C683.818481,749.816711 683.818481,741.213745 683.818481,732.219666 
	C682.300537,732.079773 680.898438,731.950562 678.193176,731.701233 
	C679.307800,729.760864 680.095093,728.390320 681.347168,727.011597 
z"/>
<path fill="#848484" opacity="1.000000" stroke="none" 
	d="
M1070.025269,729.868286 
	C1070.929321,728.615051 1071.803833,727.176086 1072.764160,727.116394 
	C1076.897705,726.858948 1081.056396,727.006348 1085.608154,727.006348 
	C1085.752197,728.581543 1085.877319,729.950989 1086.027954,731.598938 
	C1084.314087,731.862122 1082.903198,732.078735 1081.255127,732.331848 
	C1081.255127,741.010071 1081.255127,749.614563 1081.255127,758.580139 
	C1082.588013,758.817993 1083.977051,759.065796 1085.673828,759.368530 
	C1085.673828,760.720886 1085.673828,762.109497 1085.673828,763.750610 
	C1080.635498,763.750610 1075.695557,763.750610 1070.340942,763.750610 
	C1070.237915,762.380493 1070.134888,761.009277 1070.010254,759.351624 
	C1071.725220,759.120178 1073.135254,758.929871 1074.759033,758.710754 
	C1074.759033,749.946411 1074.759033,741.342163 1074.759033,733.031128 
	C1073.072754,732.062317 1071.553955,731.189697 1070.025269,729.868286 
z"/>
<path fill="#848484" opacity="1.000000" stroke="none" 
	d="
M841.025269,729.868774 
	C841.929016,728.615479 842.798279,727.185181 843.764221,727.116577 
	C847.561646,726.847168 851.389465,727.006287 855.608521,727.006287 
	C855.752441,728.581177 855.877563,729.950745 856.028198,731.599060 
	C854.313965,731.862244 852.902527,732.078979 851.255127,732.331909 
	C851.255127,741.009766 851.255127,749.614258 851.255127,758.579773 
	C852.588379,758.817810 853.977966,759.065918 855.673645,759.368652 
	C855.673645,760.720398 855.673645,762.108826 855.673645,763.750244 
	C850.969238,763.750244 846.362488,763.750244 841.340820,763.750244 
	C841.237793,762.380676 841.134583,761.009399 841.009888,759.351868 
	C842.726440,759.120117 844.138428,758.929443 845.759155,758.710632 
	C845.759155,749.946533 845.759155,741.342285 845.759155,733.030701 
	C844.072998,732.062256 842.554138,731.189819 841.025269,729.868774 
z"/>
<path fill="#848484" opacity="1.000000" stroke="none" 
	d="
M498.931274,745.000000 
	C501.374573,745.000000 503.340820,745.000000 505.679535,745.000000 
	C505.778809,746.677917 505.859924,748.049377 505.958801,749.720459 
	C500.240082,749.720459 494.859741,749.720459 489.250061,749.720459 
	C489.250061,748.244019 489.250061,746.973511 489.250061,745.000000 
	C492.283020,745.000000 495.368622,745.000000 498.931274,745.000000 
z"/>
<path fill="#000000" opacity="1.000000" stroke="none" 
	d="
M140.251068,565.749329 
	C149.597336,575.033936 149.795609,586.289917 146.582977,597.246948 
	C143.621521,607.347351 135.703415,613.558533 124.984955,614.922058 
	C117.641510,615.856140 110.192924,615.963867 102.377769,616.467712 
	C102.377769,596.391418 102.377769,577.008911 102.377769,557.107056 
	C115.539169,557.219604 129.166122,554.662842 140.251068,565.749329 
z"/>
<path fill="#000000" opacity="1.000000" stroke="none" 
	d="
M726.235229,558.675415 
	C740.009460,566.952759 746.687683,579.658203 749.857666,594.321228 
	C753.202393,609.792908 752.371155,625.187988 747.047424,640.264893 
	C740.307861,659.351562 723.837219,673.120361 703.341492,671.957458 
	C687.651123,671.067200 676.194763,662.934204 668.414368,649.710022 
	C662.868530,640.283936 660.554321,629.907104 659.794128,618.864014 
	C658.792236,604.310913 660.477722,590.459900 667.230713,577.562805 
	C675.617737,561.545227 689.074890,552.758240 707.286133,553.261169 
	C713.546692,553.434082 719.723816,556.628479 726.235229,558.675415 
z"/>
<path fill="#000000" opacity="1.000000" stroke="none" 
	d="
M993.000000,583.000000 
	C993.000000,574.203430 993.000000,565.906921 993.000000,557.221741 
	C1005.385132,556.828430 1017.250183,555.823303 1027.795410,563.839172 
	C1033.945679,568.514282 1036.804321,574.944946 1037.643799,581.814453 
	C1039.274048,595.152466 1037.515625,607.342102 1023.978271,615.128296 
	C1018.828674,618.090088 1012.247131,618.824646 1006.196228,619.864868 
	C1002.164001,620.558044 997.916016,619.996521 993.000000,619.996521 
	C993.000000,607.668884 993.000000,595.584473 993.000000,583.000000 
z"/>
<path fill="#000000" opacity="1.000000" stroke="none" 
	d="
M1117.156738,757.310486 
	C1107.342773,763.189758 1100.509033,756.832581 1098.347656,750.752869 
	C1095.407837,742.483582 1099.736450,733.943604 1107.944092,731.526001 
	C1114.725952,729.528320 1121.250488,735.157043 1121.911621,744.044006 
	C1122.269287,748.853149 1121.379395,753.557190 1117.156738,757.310486 
z"/>
<path fill="#000000" opacity="1.000000" stroke="none" 
	d="
M800.165588,744.390015 
	C797.733948,744.766052 795.644165,744.890198 793.267700,745.031372 
	C793.267700,740.661499 793.267700,736.740173 793.267700,732.804077 
	C799.936829,730.912048 805.992249,732.449585 806.948669,736.300781 
	C807.980164,740.454102 805.590881,743.361206 800.165588,744.390015 
z"/>
<path fill="#000000" opacity="1.000000" stroke="none" 
	d="
M767.705933,740.316162 
	C768.815491,743.249146 769.713135,745.851746 770.721375,748.775085 
	C766.802856,748.775085 763.270081,748.775085 759.398438,748.775085 
	C761.147766,744.091431 762.825500,739.599426 764.971191,733.854614 
	C766.110046,736.622559 766.802002,738.304138 767.705933,740.316162 
z"/>
<path fill="#000000" opacity="1.000000" stroke="none" 
	d="
M653.898315,748.979126 
	C653.908936,746.851318 654.132568,744.680237 654.772949,742.639893 
	C655.672241,739.774658 656.881165,737.006592 658.240417,733.459106 
	C660.280090,739.129578 661.990479,743.884583 663.828369,748.994141 
	C660.245422,748.994141 657.271301,748.994141 653.898315,748.979126 
z"/>
<path fill="#000000" opacity="1.000000" stroke="none" 
	d="
M947.124146,744.976135 
	C945.878418,740.896667 945.086731,736.833008 944.198059,732.271545 
	C947.811401,732.271545 950.279663,731.967224 952.639648,732.342834 
	C956.184143,732.907043 959.165466,735.128052 958.755432,738.808105 
	C958.320312,742.713501 955.289062,744.982483 951.066772,744.997253 
	C949.903870,745.001343 948.741028,744.994019 947.124146,744.976135 
z"/>
</svg>