<svg id ="refreshinsp" width="28" height="28" viewBox="0 0 28 28" fill="none" xmlns="http://www.w3.org/2000/svg">
<circle cx="14" cy="14" r="14" fill="#E2E8ED"/>
<path fill-rule="evenodd" clip-rule="evenodd" d="M9.06967 13.7783C8.68286 14.9001 8.6055 19.7738 13.8854 20.354C19.2234 20.6248 19.9776 15.577 19.6488 13.7783C19.3201 11.9797 17.6375 10.1423 15.0845 9.87156C15.1039 10.7806 15.0845 11.3801 15.0845 11.8249C15.0652 12.5405 15.0458 12.908 14.3689 12.3084C12.9184 11.1093 10.0367 8.65312 10.0367 8.65312C10.0367 8.65312 12.8797 6.44831 14.3689 5.24921C15.0652 4.7657 15.1039 5.01713 15.0845 5.73272C15.0845 6.5837 15.0845 7.6861 15.0845 7.6861C15.0845 7.6861 20.7706 7.70544 21.5829 13.5269C22.3952 19.3483 17.4054 24.4349 10.8103 21.5531C6.12993 19.5224 7.01959 14.0684 7.15497 13.2755C7.44507 11.9603 7.7932 11.9603 8.12199 12.057C8.45077 12.1537 8.52814 12.1924 8.83758 12.3084C9.14703 12.4245 9.47581 12.5018 9.06967 13.7783Z" fill="#7683A1"/>
</svg>
